<svg width="136" height="61" viewBox="0 0 136 61" fill="none" xmlns="http://www.w3.org/2000/svg">
<path d="M65.896 13.5854C65.9059 13.5585 65.9189 13.5294 65.9082 13.5041C65.8975 13.4795 65.8692 13.4672 65.8432 13.4688C65.8164 13.4688 65.792 13.4803 65.7683 13.491C65.4761 13.6206 65.1771 13.6881 64.8667 13.7579C64.5508 13.8285 64.2342 13.8998 63.9115 13.9382C63.4512 13.9934 62.987 14.0011 62.5236 14.0256C61.5501 14.077 60.5751 14.1269 59.5993 14.1177C59.1978 14.1138 58.7987 14.0586 58.4041 13.9888C58.2114 13.9543 58.0034 13.9328 57.8168 13.8753C57.6501 13.8231 57.4703 13.8239 57.2952 13.8109C57.2455 13.807 57.1951 13.8032 57.1484 13.7848C57.0161 13.7326 56.9504 13.567 56.9863 13.4297C57.0123 13.3315 57.0811 13.2502 57.1652 13.1957C57.2639 13.132 57.3771 13.142 57.4925 13.139C57.7625 13.1328 58.0324 13.1528 58.3024 13.1643C59.3064 13.2057 60.3097 13.2555 61.3138 13.2908C61.5356 13.2985 61.6143 13.1865 61.5853 12.9403C61.5142 12.3267 61.4736 11.7092 61.4354 11.0933C61.3666 9.98492 61.7344 9.03687 62.5496 8.29054C62.9916 7.88478 63.4695 7.50971 63.9674 7.17375C64.4254 6.86386 64.7183 7.06253 64.8659 7.60098C65.0869 8.4079 65.0808 9.25087 64.8713 10.0593C64.6663 10.8501 64.2931 11.5857 63.8855 12.2883C63.7747 12.4778 63.6752 12.6749 63.4932 12.8038C63.4382 12.8429 63.3831 12.8812 63.3281 12.9203C63.2952 12.9434 63.2615 12.9679 63.2409 13.0024C63.2195 13.0369 63.2149 13.0845 63.2394 13.1159C63.2631 13.1459 63.3074 13.1528 63.3449 13.1443C63.3824 13.1359 63.4152 13.1152 63.4496 13.0968C63.5452 13.0469 63.6408 13.0354 63.7464 13.0339C63.8572 13.0316 63.9704 13.0063 64.0798 12.9901C64.3092 12.9572 64.5386 12.9211 64.7673 12.8835C65.2246 12.8076 65.6788 12.7225 66.1323 12.6266C66.5926 12.5284 67.0515 12.4195 67.5065 12.2983C67.9569 12.1779 68.3981 12.0222 68.8485 11.901C69.1934 11.8082 69.5337 11.7176 69.8687 11.5903C69.8901 11.5819 69.9122 11.5734 69.9298 11.5581C69.9665 11.5251 69.9727 11.4676 69.9581 11.42C69.9428 11.3725 69.9122 11.3318 69.884 11.2912C69.6431 10.9414 69.5475 10.5103 69.4794 10.0977C69.4144 9.70112 69.3968 9.29536 69.4358 8.8942C69.5184 8.04279 69.8664 7.25889 70.3604 6.57086C70.4223 6.48418 70.4919 6.40825 70.5661 6.33231C70.6273 6.27018 70.6716 6.19578 70.7328 6.13212C70.8827 5.97564 71.0417 5.82837 71.2054 5.68801C71.5396 5.4019 71.8944 5.14111 72.2446 4.87649C72.3563 4.79211 72.4679 4.70774 72.578 4.62183C72.8908 4.37868 73.2403 4.57504 73.4254 5.01302C73.7435 5.76548 73.6915 6.55629 73.6012 7.33712C73.5531 7.75439 73.4338 8.16015 73.2678 8.54597C73.1447 8.83053 73.0139 9.11357 72.8434 9.37359C72.6614 9.64972 72.4412 9.90131 72.2301 10.1583C72.1781 10.2219 72.1261 10.2856 72.0886 10.3585C72.0795 10.3753 72.0733 10.3983 72.0871 10.4114C72.0932 10.4168 72.1016 10.4183 72.1108 10.4191C72.1574 10.4221 72.2026 10.4006 72.2439 10.3784C72.5803 10.2012 72.8985 9.98722 73.189 9.74177C73.4009 9.56305 73.6471 9.43419 73.8696 9.26851C74.7162 8.63724 75.5329 7.96686 76.3641 7.31641C76.5492 7.17144 76.5439 7.02264 76.5377 6.78409C76.5247 6.31697 76.5928 5.82147 76.7511 5.38196C77.0516 4.54666 77.4607 3.75662 77.9196 2.99956C78.149 2.62141 78.3906 2.25017 78.6384 1.88353C78.8831 1.52149 79.1133 1.14028 79.3955 0.806616C79.4544 0.737583 79.514 0.669317 79.5744 0.601819C79.6654 0.496735 79.7579 0.392419 79.8627 0.301142C79.9981 0.183019 80.1541 0.0886743 80.3208 0.0234766C80.359 0.00890304 80.3988 -0.00413627 80.4385 0.00123295C80.4745 0.00583514 80.5051 0.0242437 80.5349 0.0441865C80.8469 0.252819 81.0434 0.595682 81.1941 0.94008C81.3348 1.2607 81.4671 1.6074 81.526 1.9541C81.5879 2.32227 81.5894 2.69582 81.6414 3.06399C81.7959 4.14857 81.2193 5.36355 80.4255 6.08226C80.2443 6.24641 80.0424 6.38524 79.8398 6.52254C79.3006 6.88688 78.7424 7.24661 78.1215 7.45448C77.8622 7.54115 77.5586 7.54576 77.3231 7.67462C77.0562 7.82112 76.8406 8.04203 76.5905 8.21384C76.4116 8.33733 76.254 8.48614 76.0843 8.62344C75.8969 8.77531 75.7126 8.93102 75.5207 9.07752C75.4258 9.15115 75.3295 9.22402 75.2339 9.29612C75.188 9.33064 75.0488 9.43112 75.1949 9.448C75.3769 9.46947 75.5857 9.43879 75.7669 9.40504C76.225 9.32067 76.6777 9.1711 77.1388 9.14195C78.4748 9.05604 79.6241 9.49555 80.5188 10.5165C80.6366 10.6515 80.7674 10.7972 80.8622 10.9483C81.0067 11.1784 81.1337 11.4185 81.243 11.667C81.2713 11.7322 81.2996 11.8012 81.2912 11.8726C81.2874 11.9063 81.2751 11.9385 81.2614 11.97C81.227 12.0536 81.1834 12.1334 81.1321 12.207C80.9043 12.533 80.5288 12.7202 80.1556 12.8521C79.8451 12.9618 79.4979 13.0845 79.1684 13.0845C78.8258 13.0837 78.4816 13.0293 78.1574 12.918C77.4057 12.6611 76.6524 12.3765 75.9558 12.0007C75.2576 11.6225 74.6152 11.1347 73.9744 10.6614C73.745 10.4912 73.5913 10.4428 73.3496 10.6177C72.653 11.1232 71.9089 11.5619 71.1327 11.9301C70.3497 12.3014 69.5398 12.5752 68.7155 12.8337C68.4922 12.9042 68.2352 12.915 68.002 12.9487C67.9714 12.9533 67.9355 12.9625 67.9255 12.9917C67.9133 13.0285 67.9523 13.0615 67.9867 13.0784C68.067 13.1175 68.1534 13.1405 68.2391 13.1658C68.4639 13.2318 68.6857 13.3069 68.9036 13.3905C69.0068 13.4297 69.1154 13.4933 69.2225 13.5163C69.3043 13.534 69.3831 13.5455 69.4641 13.5723C69.783 13.6751 70.0866 13.8247 70.3619 14.0157C70.875 14.3723 71.2788 14.8663 71.5717 15.4163C71.8447 15.9286 72.0267 16.4901 72.1261 17.0616C72.1483 17.1881 72.1666 17.3147 72.1796 17.442C72.2293 17.9199 72.0588 18.0878 71.5763 18.1569C69.12 18.5097 67.131 17.0516 66.1896 15.0366C66.0787 14.7988 66.0191 14.5411 65.9702 14.2849C65.9472 14.1675 65.9373 14.0425 65.9067 13.9282C65.8746 13.8093 65.8493 13.7073 65.896 13.5854Z" fill="#7D4D38"/>
<path d="M98.1164 60.2556C97.6254 60.2618 97.1353 60.2871 96.642 60.2963C95.3359 60.3193 94.0305 60.3438 92.7252 60.3676C91.4198 60.3906 90.1144 60.4121 88.8083 60.432C85.5254 60.4804 82.2409 60.5732 78.958 60.5364C76.3702 60.508 73.784 60.3093 71.1962 60.1912C70.098 60.1413 68.9984 60.1222 67.901 60.057C65.031 59.8859 62.1641 59.6704 59.2934 59.5231C56.9167 59.4004 54.5361 59.3037 52.1571 59.2769C48.5866 59.2362 45.0147 59.3037 41.4442 59.2569C37.2589 59.2032 33.0737 59.0736 28.8891 58.9816C27.2802 58.9455 25.6712 58.9141 24.0623 58.898C23.7334 58.8941 23.4 58.9417 23.075 59.0046C21.2045 59.3659 19.3157 59.4786 17.4123 59.5131C14.3581 59.5684 11.3046 59.6987 8.25029 59.7655C7.42516 59.7839 6.59698 59.6458 5.77108 59.6543C4.40225 59.6688 3.03417 59.7425 1.6661 59.7946C1.43057 59.8038 1.19504 59.8199 0.959505 59.8337C0.801974 59.8429 0.542736 59.8775 0.405087 59.7854C0.389028 59.7747 0.373734 59.7616 0.359204 59.7478C0.304909 59.6957 0.255969 59.6328 0.240674 59.5591C0.190203 59.3206 0.592442 59.2132 0.766032 59.191C2.75658 58.934 4.75325 58.8197 6.76062 58.9056C7.6324 58.944 8.5057 59.0161 9.37594 58.9915C12.2941 58.9118 15.2107 58.7545 18.1296 58.7077C19.9917 58.6786 21.8094 58.3004 23.6516 58.1647C25.2223 58.0488 26.8084 58.1302 28.3875 58.1463C29.517 58.1578 30.6457 58.2168 31.7752 58.236C34.1397 58.2759 36.5049 58.3073 38.8694 58.335C42.8452 58.381 46.8217 58.3986 50.7967 58.47C53.6422 58.5206 56.4884 58.5996 59.3316 58.7384C62.5794 58.898 65.8225 59.1565 69.0695 59.3344C71.19 59.451 73.3198 59.4311 75.4357 59.596C79.1545 59.8859 82.8749 59.777 86.5937 59.7363C93.5227 59.6612 100.451 59.5292 107.38 59.4341C112.004 59.3705 116.629 59.3612 121.253 59.2684C123.856 59.217 126.458 59.0567 129.06 58.9248C130.653 58.8443 132.243 58.7307 133.835 58.6195C134.359 58.5835 134.882 58.5152 135.405 58.4523C135.66 58.4216 135.918 58.4071 135.987 58.7185C136.062 59.0583 135.808 59.1787 135.541 59.2216C135.125 59.2876 134.705 59.3367 134.284 59.3628C131.911 59.5055 129.535 59.6144 127.162 59.7824C121.46 60.1858 115.749 59.9849 110.042 60.07C109.193 60.083 108.344 60.0999 107.495 60.1191C106.189 60.149 104.883 60.1866 103.576 60.2257C102.923 60.2449 102.27 60.2648 101.617 60.2848C101.291 60.2947 100.964 60.3047 100.638 60.3147C100.474 60.3193 100.311 60.3247 100.147 60.3293C100.003 60.3339 99.8745 60.3139 99.7322 60.3078C99.4447 60.294 99.1564 60.2802 98.8681 60.2671C98.6173 60.2549 98.3664 60.2525 98.1164 60.2556Z" fill="#7D4D38"/>
<path d="M2.47766 13.6435C2.46007 13.635 2.44324 13.6243 2.42795 13.6113C2.36371 13.5545 2.34689 13.4594 2.34995 13.3727C2.35072 13.3313 2.3553 13.2906 2.36371 13.25C2.39124 13.1119 2.66578 13.1142 2.7736 13.1127C4.24644 13.0904 5.72081 13.0068 7.18447 13.2914C9.88085 13.8168 12.6116 13.5522 15.3279 13.6166C17.2244 13.6611 19.1217 13.7102 21.0181 13.6926C23.1846 13.6719 25.3503 13.5407 27.5159 13.5361C28.442 13.5338 29.3658 13.7754 30.2949 13.8253C31.4955 13.8897 32.7022 13.8506 33.9043 13.8966C35.7955 13.9702 37.6843 14.119 39.5755 14.1566C40.8342 14.1812 42.096 14.0707 43.3562 14.0155C44.1974 13.9779 45.037 13.9142 45.8782 13.8905C46.6621 13.8697 47.4459 13.9043 48.229 13.8782C48.6304 13.8651 49.0281 13.7463 49.4303 13.7232C49.7393 13.7056 50.049 13.6987 50.3579 13.7064C50.5124 13.7102 50.6669 13.7171 50.8206 13.7294C50.9429 13.7386 51.05 13.7585 51.1096 13.8805C51.1494 13.9626 51.154 14.0577 51.1509 14.1497C51.1486 14.2057 51.1433 14.264 51.1127 14.31C51.0882 14.3468 51.05 14.3722 51.0102 14.3906C50.8129 14.4803 50.6225 14.4182 50.4199 14.4097C50.2111 14.4013 50.0008 14.3791 49.7936 14.3944C48.8514 14.4642 47.9116 14.5585 46.9695 14.6191C45.6511 14.705 44.3312 14.8048 43.0113 14.8316C41.6455 14.8592 40.2782 14.8224 38.9124 14.7856C37.3043 14.7419 35.6968 14.6368 34.0879 14.6168C32.5256 14.5984 30.9671 14.7403 29.4063 14.432C28.5292 14.2579 27.6077 14.2533 26.7069 14.2632C23.8178 14.2954 20.9294 14.4059 18.0396 14.4174C15.7064 14.4274 13.3702 14.2617 11.0394 14.3177C9.42508 14.3568 7.88342 13.984 6.30658 13.8245C6.08864 13.803 5.87069 13.7846 5.65275 13.77C5.16716 13.7363 4.6808 13.7179 4.19521 13.7041C3.95126 13.6972 3.70808 13.6918 3.4649 13.6857C3.23625 13.6803 3.00149 13.655 2.7736 13.6611C2.71396 13.6626 2.65431 13.6711 2.59466 13.6688C2.55489 13.6665 2.5136 13.6596 2.47766 13.6435Z" fill="#7D4D38"/>
<path d="M85.9639 13.4792C85.9831 13.447 86.0121 13.4186 86.0435 13.3971C86.2805 13.2338 86.6315 13.2844 86.903 13.2782C87.2257 13.2698 87.5492 13.2614 87.8719 13.2529C88.8507 13.2269 89.8296 13.1992 90.8084 13.1831C91.7865 13.167 92.7653 13.1617 93.7434 13.1801C94.9042 13.2023 96.0589 13.5137 97.2167 13.6848C97.5883 13.7385 97.9631 13.7868 98.3378 13.7945C100.189 13.8336 102.043 13.9218 103.893 13.8727C106.222 13.8113 108.547 13.6111 110.877 13.5153C112.305 13.4562 113.737 13.4524 115.167 13.4746C116.465 13.4946 117.746 13.4539 119.02 13.1409C119.453 13.0343 119.894 12.9699 120.332 12.8886C120.553 12.8479 120.774 12.8027 120.992 12.7459C121.201 12.6915 121.4 12.6255 121.606 12.5603C121.825 12.492 122.045 12.4238 122.271 12.3831C122.495 12.3432 122.721 12.3486 122.949 12.3417C123.439 12.3279 123.929 12.3126 124.42 12.2972C125.399 12.2681 126.38 12.2405 127.36 12.2243C127.85 12.2159 128.34 12.2105 128.831 12.209C129.221 12.2075 129.606 12.2918 129.983 12.3885C130.173 12.4368 130.36 12.4936 130.551 12.5381C130.71 12.5749 130.847 12.6232 130.97 12.739C131.068 12.8303 131.145 12.9684 131.103 13.0965C131.067 13.2046 130.958 13.2706 130.852 13.3112C130.688 13.3726 130.471 13.4217 130.301 13.3665C130.109 13.3028 129.918 13.2376 129.725 13.1793C129.348 13.0673 128.96 12.976 128.565 12.9745C128.145 12.973 127.724 12.9753 127.304 12.9806C126.325 12.9929 125.347 13.0205 124.369 13.0504C124.124 13.0573 123.879 13.065 123.634 13.0719C123.402 13.0788 123.16 13.1018 122.929 13.085C122.5 13.0535 122.113 13.2905 121.703 13.3741C121.284 13.4593 120.875 13.5774 120.452 13.6518C120.021 13.727 119.587 13.7899 119.162 13.8972C117.965 14.1987 116.754 14.2501 115.536 14.2524C114.271 14.2547 113.004 14.1887 111.742 14.2363C110.36 14.2869 108.983 14.4871 107.602 14.5254C105.345 14.5899 103.086 14.5945 100.828 14.5876C99.6401 14.5837 98.4479 14.5508 97.2664 14.4388C96.3877 14.3552 95.529 14.0292 94.6511 13.9747C92.8502 13.8627 91.0432 13.8574 89.2384 13.8144C89.0626 13.8113 88.8859 13.8075 88.71 13.8052C88.2206 13.7983 87.732 13.7952 87.2425 13.7868C87.0399 13.7837 86.8258 13.8029 86.627 13.7737C86.435 13.7454 86.2178 13.7998 86.0412 13.6978C85.9945 13.671 85.9517 13.6295 85.9433 13.5766C85.9372 13.5421 85.9464 13.5091 85.9639 13.4792Z" fill="#7D4D38"/>
<path d="M122.056 29.9303C121.984 29.9464 121.924 30.0078 121.893 30.0768C121.857 30.1581 121.854 30.2494 121.851 30.3384C121.842 30.6352 121.833 30.9313 121.824 31.2281C121.815 31.5165 121.709 31.7628 121.648 32.0427C121.579 32.3664 121.506 32.6901 121.432 33.0138C121.283 33.6596 121.125 34.3039 120.959 34.9452C120.624 36.2315 120.252 37.5086 119.845 38.7734C119.666 39.3288 119.48 39.881 119.288 40.4318C119.195 40.6994 119.11 40.9748 119.002 41.2364C118.927 41.4174 118.76 41.6859 118.884 41.8814C119.053 42.1476 119.834 41.9528 120.088 41.9351C120.588 41.8999 121.089 41.8638 121.589 41.8285C121.95 41.8024 122.311 41.7787 122.672 41.7533C122.94 41.7349 123.208 41.7165 123.477 41.6981C123.71 41.6813 124.021 41.7411 124.228 41.626C124.268 41.603 124.306 41.5746 124.336 41.5386C124.506 41.3346 124.391 40.9434 124.348 40.7125C124.284 40.3819 124.221 40.0513 124.158 39.7207C123.632 36.9763 123.107 34.2326 122.581 31.4882C122.532 31.232 122.483 30.9765 122.435 30.7211C122.396 30.5156 122.396 30.2087 122.274 30.0323C122.233 29.9717 122.167 29.9257 122.093 29.9257C122.081 29.9257 122.068 29.9272 122.056 29.9303ZM131.035 52.9282C131.012 53.2113 130.944 53.4897 130.806 53.7543C130.521 54.2959 129.855 54.6571 129.264 54.7062C128.214 54.7937 127.377 54.2583 127.051 53.2259C126.805 52.4473 126.601 51.6527 126.419 50.8557C126.214 49.9583 126.041 49.0524 125.899 48.1427C125.825 47.6741 125.76 47.2046 125.703 46.7337C125.671 46.4629 125.707 45.8923 125.435 45.7304C125.214 45.5985 124.797 45.6944 124.555 45.7105C124.215 45.7327 123.874 45.755 123.534 45.7764C122.856 45.8186 122.178 45.8562 121.498 45.8785C120.777 45.9015 120.054 45.8708 119.336 45.8033C118.969 45.768 118.602 45.7243 118.236 45.6737C117.962 45.6353 117.618 45.4842 117.377 45.6836C117.187 45.8416 117.231 46.0717 117.159 46.2827C117.061 46.5703 116.953 46.8541 116.85 47.1395C116.649 47.6979 116.448 48.2563 116.248 48.8139C115.846 49.9299 115.443 51.0467 115.037 52.1612C114.888 52.5693 114.717 52.9727 114.515 53.3563C114.286 53.7896 113.911 54.0566 113.422 54.157C113.057 54.2322 112.587 54.1716 112.281 53.9377C112.054 53.7635 111.722 53.4491 111.591 53.1898C111.518 53.0471 111.495 52.8845 111.488 52.725C111.468 52.2103 111.605 51.7041 111.742 51.2078C112.232 49.4321 112.873 47.6994 113.467 45.9536C114.355 43.3396 115.242 40.7255 116.125 38.1092C116.941 35.6884 117.532 33.2094 117.947 30.6889C118.355 28.2137 118.827 25.7515 119.407 23.3116C119.564 22.6542 119.807 22.0099 120.077 21.3886C120.442 20.548 121.096 20.0157 122.012 19.8523C122.919 19.6904 123.832 20.1177 124.277 20.9238C124.414 21.1723 124.518 21.4462 124.591 21.7208C125.441 24.9369 126.149 28.1853 126.778 31.4521C127.285 34.0807 127.805 36.707 128.363 39.3257C128.524 40.0789 128.836 40.7999 129.084 41.534C129.183 41.8255 129.289 42.1154 129.407 42.4C129.653 42.9852 129.75 43.6011 129.819 44.227C129.956 45.4558 130.029 46.7214 130.25 47.9356C130.478 49.1882 130.706 50.4415 130.933 51.6941C131.008 52.1014 131.067 52.5202 131.035 52.9282Z" fill="#7D4D38"/>
<path d="M19.3632 29.3854C19.3709 30.9371 19.4221 32.488 19.4986 34.0413C19.5353 34.7838 19.634 35.5232 19.7211 36.2618C19.8244 37.1378 19.9505 38.0114 20.0599 38.8866C20.1968 39.9835 20.3268 41.0811 20.4599 42.1787C20.6204 43.508 20.7971 44.8357 20.9386 46.1673C21.0181 46.9205 21.1282 47.6707 21.2735 48.4139C21.3477 48.7913 21.4303 49.1672 21.5236 49.5407C21.5924 49.8176 21.6237 50.3054 21.8585 50.4918C21.938 50.5555 22.0336 50.5962 22.1292 50.6307C22.2034 50.6575 22.2806 50.6813 22.3586 50.6706C22.6332 50.6322 22.718 50.2541 22.8328 50.0493C23.0071 49.7378 23.1471 49.4065 23.2059 49.0521C23.3734 48.0419 23.4323 47.0241 23.4568 46.0032C23.4789 45.0774 23.4774 44.1515 23.5164 43.2265C23.5875 41.559 23.6816 39.8914 23.7649 38.2239C23.8146 37.236 23.8575 36.248 23.9118 35.2601C23.9959 33.7421 24.1091 32.2265 24.0249 30.7024C23.9385 29.1415 23.8865 27.579 23.8192 26.0166C23.8009 25.5809 23.7841 25.146 23.7596 24.7103C23.7213 24.0123 23.4835 23.4309 22.8343 23.0727C22.5146 22.8963 22.2279 22.8787 21.9136 23.0919C21.5152 23.3634 21.0731 23.5383 20.5876 23.592C20.4514 23.6073 20.3176 23.6472 20.1846 23.6787C19.9582 23.7324 19.7945 23.8704 19.7448 24.0944C19.6263 24.6221 19.4611 25.1506 19.4351 25.6845C19.4305 25.7665 19.4275 25.8486 19.4237 25.9307C19.3755 27.0828 19.3571 28.2341 19.3632 29.3854ZM21.7897 54.6936C21.2291 54.6392 20.6755 54.4704 20.1708 54.1851C19.4971 53.8031 18.9373 53.234 18.5817 52.5436C18.2139 51.8288 18.0128 51.0587 17.8491 50.2763C17.4866 48.5489 17.2259 46.8055 17.0133 45.0536C16.7992 43.2917 16.5912 41.5291 16.3709 39.7687C16.2509 38.8092 16.0941 37.8542 15.984 36.8939C15.8861 36.0386 15.7882 35.1803 15.7637 34.3213C15.714 32.5463 15.6911 30.7699 15.7018 28.9942C15.7087 27.9112 15.7278 26.825 15.8723 25.7466C15.9909 24.8607 16.1446 23.9809 16.4038 23.1264C16.8336 21.7097 17.7612 20.7264 19.0872 20.0989C19.3426 19.9785 19.5888 19.8251 19.8144 19.6541C20.573 19.0757 21.4502 18.7566 22.4045 18.752C22.8909 18.7497 23.3826 18.7981 23.8445 18.9507C24.5641 19.1885 25.0007 19.7561 25.6263 20.145C26.6242 20.764 27.1993 21.6806 27.4325 22.8089C27.577 23.5153 27.6688 24.234 27.7476 24.9512C28.0053 27.3221 28.0657 29.703 28.055 32.0854C28.0504 32.9667 27.977 33.848 27.9303 34.7293C27.8768 35.7272 27.8156 36.7244 27.7621 37.7223C27.6596 39.633 27.5541 41.5436 27.4623 43.4551C27.421 44.3257 27.405 45.1985 27.3851 46.0699C27.3629 46.9949 27.3392 47.9192 27.1863 48.8343C26.9309 50.3691 26.3497 51.7743 25.4664 53.0476C24.6252 54.261 23.1853 54.8294 21.7897 54.6936Z" fill="#7D4D38"/>
<path d="M3.79986 45.9247C3.70198 46.0205 3.75551 46.2338 3.75551 46.3787C3.75398 47.7617 3.75474 49.1454 3.74939 50.5284C3.74862 50.7086 3.83351 50.7585 3.9918 50.7907C5.16028 51.027 6.16894 50.4294 6.49394 49.2774C6.79983 48.1966 6.47712 47.2432 5.84241 46.3734C5.64129 46.098 5.34075 45.9599 5.00199 45.9039C4.65175 45.8457 4.30075 45.8771 3.94974 45.8756C3.87939 45.8748 3.83121 45.894 3.79986 45.9247ZM0.143766 26.3017C0.168237 25.2401 0.286769 24.1816 0.371652 23.1223C0.406828 22.6882 0.456534 22.2548 0.516181 21.8238C0.607947 21.1664 0.972715 20.7277 1.62272 20.5781C2.16796 20.4523 2.72009 20.3365 3.27603 20.2728C5.2727 20.0442 7.2793 20.1455 9.28208 20.1585C9.57191 20.1601 9.87397 20.2314 10.1485 20.3311C11.0302 20.651 11.5311 21.4824 11.437 22.4151C11.3438 23.3371 10.641 24.0712 9.71568 24.2023C9.50691 24.2322 9.29356 24.2483 9.0825 24.2491C7.42766 24.2514 5.77358 24.2476 4.11951 24.246C3.94974 24.2453 3.7968 24.2307 3.72262 24.4263C3.6408 24.6411 3.72492 24.9962 3.72109 25.2401C3.71803 25.461 3.71574 25.6827 3.71345 25.9036C3.70733 26.4727 3.7035 27.0419 3.69968 27.611C3.6905 29.0745 3.68515 30.538 3.68133 32.0023C3.67827 33.5524 3.67674 35.1018 3.67827 36.652C3.6798 37.8716 3.68209 39.0912 3.69204 40.31C3.6928 40.4803 3.68821 40.6513 3.68745 40.8208C3.68668 41.0348 3.59415 41.3915 3.68362 41.5833C3.8228 41.8778 4.51639 41.7535 4.77487 41.7344C5.32928 41.6945 5.87529 41.729 6.41288 41.8816C7.14395 42.0895 7.77331 42.4753 8.30631 43.0084C9.45262 44.1551 10.2395 45.5089 10.5309 47.1189C10.7626 48.3968 10.5706 49.6333 10.1179 50.8429C9.31115 52.9952 7.73201 54.1771 5.51893 54.5952C4.54775 54.7785 3.57733 54.7202 2.60461 54.6259C2.33085 54.5998 2.05402 54.5821 1.7856 54.5277C1.05072 54.3789 0.360945 53.8811 0.10859 53.1524C-0.0137638 52.8003 0.0397665 52.4621 0.0229428 52.1016C0.00841324 51.7702 0 51.4365 0 51.1014V42.7975C0 40.0285 0.0856482 28.8958 0.143766 26.3017Z" fill="#7D4D38"/>
<path d="M102.057 50.6631C102.264 50.861 102.721 50.7628 102.971 50.7628C103.293 50.7628 103.995 50.9147 104.198 50.5995C104.352 50.3617 104.293 50.0717 104.294 49.804C104.295 49.4589 104.296 49.1129 104.297 48.7678C104.301 48.0759 104.303 47.3848 104.306 46.693C104.31 45.3108 104.317 43.9278 104.321 42.5448C104.332 39.7797 104.341 37.0138 104.345 34.2486C104.346 33.3359 104.347 32.4231 104.347 31.5103C104.348 30.1718 104.244 28.8326 104.177 27.4949C104.098 25.901 103.988 24.3079 104.047 22.7109C104.063 22.2545 104.105 21.7982 104.163 21.3456C104.229 20.8317 104.513 20.4612 104.991 20.258C105.545 20.0225 106.127 19.9243 106.728 19.9366C107.08 19.9442 107.32 20.1452 107.501 20.4267C107.785 20.8654 107.905 21.3625 107.956 21.8726C108.011 22.4333 108.048 22.9963 108.068 23.5593C108.124 25.0366 108.191 26.5146 108.21 27.9935C108.252 31.3653 108.281 34.738 108.289 38.1106C108.291 39.2581 108.22 40.4064 108.171 41.5538C108.113 42.8954 108.123 44.2331 108.25 45.5708C108.308 46.1844 108.344 46.8003 108.387 47.4155C108.481 48.7524 108.576 50.0894 108.662 51.4263C108.681 51.7017 108.678 51.9801 108.662 52.2555C108.621 52.9443 108.309 53.4689 107.693 53.798C107.099 54.1155 106.467 54.3249 105.811 54.463C104.967 54.6402 104.112 54.7246 103.252 54.7154C101.714 54.6985 100.176 54.6678 98.6386 54.6348C97.1015 54.6018 95.5637 54.5619 94.0266 54.5205C93.4225 54.5037 92.8176 54.4822 92.2273 54.3364C92.0628 54.2966 91.8984 54.2475 91.7432 54.1823C91.0412 53.8862 90.6428 53.3493 90.603 52.5922C90.5587 51.7431 90.5502 50.8909 90.5533 50.0403C90.5724 44.2308 90.5931 38.4213 90.6259 32.6125C90.642 29.8788 90.6879 27.1444 90.7124 24.4099C90.7192 23.6099 90.7949 22.8183 90.9288 22.0306C90.9808 21.7238 91.0748 21.43 91.2515 21.1707C91.6285 20.6177 92.1462 20.327 92.8214 20.396C93.4799 20.4635 93.9456 20.8309 94.1895 21.4407C94.3012 21.723 94.3662 22.0344 94.3906 22.3381C94.4549 23.1428 94.526 23.9504 94.5245 24.7566C94.5145 31.1514 94.4885 37.5453 94.4679 43.9401C94.4633 45.2057 94.4411 46.4728 94.4648 47.7384C94.4763 48.329 94.5007 48.9189 94.5298 49.5095C94.5436 49.7979 94.5596 50.0863 94.5734 50.3739C94.5849 50.6133 94.5153 50.8388 94.6338 51.0643C94.8571 51.4884 95.5285 51.0965 95.878 50.996C96.4164 50.8418 96.9539 50.6861 97.4915 50.5289C97.8571 50.4223 97.971 50.2765 97.9863 49.89C98.0291 48.7946 98.0819 47.7001 98.1041 46.6048C98.1828 42.6262 98.2509 38.6483 98.3228 34.6697C98.3618 32.4891 98.4046 30.3084 98.4413 28.1277C98.4635 26.8391 98.5553 25.5574 98.8114 24.2918C98.8283 24.2082 98.8458 24.1253 98.8688 24.044C99.06 23.3759 99.4829 23.0208 100.135 22.9809C100.8 22.9387 101.386 23.2893 101.616 23.9136C101.746 24.2703 101.844 24.6454 101.901 25.0212C101.976 25.5244 102.03 26.036 102.035 26.5438C102.089 32.0549 102.126 37.566 102.178 43.0772C102.189 44.2921 102.092 45.4987 102.004 46.7083C101.958 47.3442 101.97 47.9839 101.965 48.622C101.963 48.9526 101.962 49.2832 101.963 49.6138C101.963 49.8953 101.863 50.3203 101.993 50.5764C102.01 50.6102 102.032 50.6386 102.057 50.6631Z" fill="#7D4D38"/>
<path d="M50.7416 50.5231C50.8578 50.6574 51.052 50.6474 51.2501 50.6405C51.5981 50.6274 51.9468 50.6167 52.2947 50.5899C53.1084 50.5277 53.9243 50.4756 54.7326 50.3705C55.8866 50.2209 57.0352 50.0261 58.1861 49.8543C58.3849 49.8244 59.0058 49.8688 59.1029 49.6518C59.1228 49.6073 59.1221 49.5559 59.1198 49.506C59.0846 48.8011 58.8575 48.0517 58.7106 47.3583C58.5546 46.6243 58.3795 45.8949 58.1738 45.1738C57.3953 42.457 56.9312 39.6842 56.6513 36.8753C56.5496 35.8544 56.4463 34.8304 56.2697 33.821C56.1695 33.2473 56.0471 32.6766 55.9187 32.109C55.8544 31.8237 55.7887 31.5399 55.7237 31.256C55.674 31.0413 55.6579 30.7698 55.5807 30.568C55.5486 30.4852 55.4721 30.4138 55.3834 30.4177C55.2993 30.4223 55.2304 30.4944 55.2044 30.5749C55.154 30.726 55.167 30.9147 55.128 31.075C55.0806 31.2683 55.0339 31.4616 54.9865 31.6541C54.8886 32.0545 54.7907 32.4542 54.6928 32.8545L54.1055 35.2538C53.4303 38.0113 52.7558 40.7703 52.0905 43.5301C51.6172 45.4922 51.065 47.4366 50.7783 49.4408C50.737 49.7285 50.5825 50.0606 50.6567 50.3505C50.6758 50.4257 50.7049 50.4817 50.7416 50.5231ZM47.3554 50.5009C47.3761 50.471 47.3837 50.4326 47.3875 50.3958C47.4051 50.2186 47.3547 50.0476 47.3287 49.8734C47.3042 49.7162 47.3332 49.6035 47.3447 49.4539C47.3738 49.078 47.321 48.6861 47.3378 48.3072C47.37 47.5693 47.4755 46.8352 47.6414 46.1165C48.374 42.9587 49.141 39.8085 49.8981 36.656C50.3975 34.5758 50.9266 32.5017 51.3954 30.4146C51.6868 29.116 51.8734 27.7937 52.1387 26.4882C52.4675 24.8728 52.8254 23.2643 53.1795 21.6543C53.2277 21.4319 53.3118 21.2141 53.4051 21.0062C54.0482 19.5703 55.6625 19.568 56.5412 20.2629C56.977 20.6089 57.2516 21.0599 57.3923 21.5907C57.6209 22.4559 57.822 23.3288 58.0591 24.1917C58.4613 25.6544 58.8605 27.1187 59.301 28.5707C59.9885 30.8326 60.4832 33.1345 60.7861 35.4786C60.9574 36.8109 61.0705 38.1517 61.2724 39.4786C61.4361 40.5563 61.6601 41.6279 61.914 42.6887C62.3407 44.4728 62.756 46.2584 63.0313 48.074C63.1032 48.5488 63.1498 49.0282 63.2232 49.5022C63.3012 50.0077 63.471 50.1519 63.9696 50.2025C64.4024 50.2455 64.836 50.293 65.2665 50.3559C66.3669 50.5162 67.134 51.4474 67.0705 52.5327C67.0108 53.5583 66.2079 54.3437 65.1839 54.3207C64.5546 54.3069 63.9252 54.231 63.2989 54.1558C61.9974 53.9993 60.6935 53.9456 59.3844 53.9748C58.2258 54.0008 57.0841 54.1811 55.947 54.3752C54.3372 54.649 52.7191 54.7119 51.0941 54.6559C49.4607 54.5991 47.8265 54.5309 46.1938 54.4457C45.8512 54.4288 45.5048 54.3429 45.1745 54.2425C44.4602 54.0239 43.9196 53.3634 43.9547 52.4599C43.9892 51.5901 44.5367 50.935 45.3756 50.7724C45.9652 50.583 46.6274 50.7026 47.2208 50.5684C47.2667 50.5576 47.3164 50.5454 47.3478 50.5101C47.3501 50.507 47.3524 50.5039 47.3554 50.5009Z" fill="#7D4D38"/>
<path d="M79.5066 39.49C79.5142 39.48 79.5219 39.4685 79.5272 39.457C79.5578 39.3964 79.5548 39.3243 79.5509 39.2561C79.5211 38.7421 79.3666 38.2206 79.2649 37.7159C78.7205 35.0121 78.176 32.3075 77.6292 29.6037C77.6063 29.4902 77.6445 29.3192 77.4533 29.3176C77.2614 29.3153 77.2966 29.4856 77.2744 29.5999C76.7383 32.3129 76.203 35.0259 75.6685 37.7389C75.605 38.0641 75.5408 38.3901 75.4765 38.7153C75.4383 38.9094 75.2601 39.3136 75.3657 39.4931C75.4903 39.7055 75.9851 39.582 76.1915 39.582H77.331H78.3595C78.6669 39.582 79.0355 39.6411 79.3368 39.5851C79.4018 39.5728 79.4661 39.5414 79.5066 39.49ZM80.1161 43.2024C79.9096 43.0536 79.6106 43.0905 79.3682 43.0836C79.0738 43.0744 78.7793 43.0697 78.4849 43.0659C78.0689 43.0605 77.6529 43.0659 77.2377 43.0521C76.746 43.0368 76.2543 43.0207 75.7625 43.0053C75.4253 42.9946 74.8655 42.8496 74.5673 43.0567C74.4212 43.158 74.4297 43.4164 74.3891 43.5729C73.6925 46.2476 72.9683 48.9161 72.254 51.5869C72.1195 52.0893 71.9673 52.5871 71.8097 53.0834C71.7493 53.2736 71.6683 53.4638 71.5643 53.6333C71.1467 54.3144 70.4141 54.566 69.6609 54.3029C69.2051 54.1449 68.9191 53.8281 68.7868 53.3656C68.5819 52.6461 68.5406 51.9259 68.7364 51.1942C69.0117 50.1686 69.2938 49.1439 69.5347 48.1099C70.0364 45.9576 70.5296 43.8038 70.9946 41.6431C71.578 38.9324 72.1393 36.2171 72.6907 33.4995C72.9951 32.0007 73.2466 30.4904 73.5472 28.9901C74.0649 26.4113 74.7967 23.8939 75.774 21.4509C75.8757 21.1963 75.9965 20.9416 76.1533 20.7184C76.6328 20.0342 77.3088 19.7596 78.1224 19.9015C78.9155 20.0404 79.4446 20.5251 79.6465 21.3067C79.8698 22.1704 80.0404 23.0471 80.243 23.9162C80.7875 26.2541 81.3319 28.592 81.8887 30.9284C82.3804 32.9963 82.7826 35.0819 83.1458 37.1759C83.6444 40.0553 84.1423 42.9347 84.6707 45.8081C85.011 47.6574 85.4063 49.4959 85.7772 51.3399C85.8896 51.8968 85.908 52.459 85.8476 53.0228C85.755 53.8933 85.2297 54.3973 84.429 54.6328C83.4097 54.9334 82.1854 54.4057 81.9529 53.1278C81.9017 52.8456 81.8344 52.5664 81.7785 52.2849C81.4459 50.6074 81.0987 48.9322 80.789 47.2501C80.594 46.1847 80.4571 45.1085 80.2935 44.037C80.2682 43.8721 80.2208 43.6964 80.2162 43.5307C80.2124 43.4072 80.2705 43.3359 80.1535 43.2324C80.1413 43.2216 80.1291 43.2116 80.1161 43.2024Z" fill="#7D4D38"/>
<path d="M39.8168 24.0832C39.7465 24.1423 39.6845 24.2205 39.6341 24.3233C39.4605 24.6723 39.4941 25.1042 39.4375 25.4831C39.124 27.5901 38.7967 29.6956 38.4977 31.8049C38.3302 32.9885 38.1735 34.1751 38.0717 35.3655C37.7934 38.6346 37.889 41.9129 37.876 45.1874C37.8722 46.2543 37.8507 47.3213 37.8783 48.3874C37.9112 49.6806 37.9884 50.9739 38.0457 52.2678C38.0687 52.7787 37.9769 53.2681 37.7093 53.7076C37.2757 54.4201 36.6371 54.7852 35.8028 54.7047C34.899 54.6173 34.2107 54.022 33.9966 53.1561C33.8926 52.7357 33.8498 52.2993 33.7993 51.8675C33.6907 50.9478 33.6632 50.0243 33.6662 49.0985C33.6747 46.6279 33.6586 44.1572 33.68 41.6866C33.6938 40.1418 33.719 38.5947 33.8123 37.053C33.8964 35.6654 34.0624 34.2809 34.223 32.8987C34.3851 31.5165 34.5785 30.1382 34.7728 28.7598C34.9448 27.5333 35.1322 26.3076 35.3203 25.0834C35.4763 24.0733 35.643 23.0654 35.8059 22.0567C35.8197 21.9708 35.8434 21.8872 35.8594 21.8013C36.0323 20.8448 36.654 20.1261 37.9479 20.0793C38.62 20.0548 39.293 20.0433 39.9652 20.0203C41.8295 19.9566 43.6947 19.8906 45.5598 19.8231C45.9414 19.8093 46.3192 19.8185 46.6839 19.9459C48.1537 20.4582 48.4053 22.1986 47.5725 23.1835C47.2804 23.5294 46.9118 23.7503 46.4568 23.7872C45.6569 23.8508 44.8563 23.9222 44.0549 23.9482C43.0906 23.9797 42.124 23.9758 41.1589 23.9712C40.7039 23.9689 40.1602 23.7941 39.8168 24.0832Z" fill="#7D4D38"/>
</svg>
