<svg width="112" height="60" viewBox="0 0 112 60" fill="none" xmlns="http://www.w3.org/2000/svg">
<path d="M54.2673 11.1879C54.2755 11.1658 54.2862 11.1418 54.2773 11.121C54.2685 11.1008 54.2452 11.0907 54.2238 11.0919C54.2018 11.0919 54.1816 11.1014 54.1621 11.1103C53.9215 11.217 53.6753 11.2726 53.4196 11.3301C53.1595 11.3882 52.8988 11.4469 52.633 11.4785C52.2539 11.524 51.8716 11.5303 51.49 11.5505C50.6883 11.5928 49.8854 11.6339 49.0818 11.6263C48.7512 11.6232 48.4224 11.5777 48.0975 11.5202C47.9388 11.4918 47.7675 11.4741 47.6138 11.4267C47.4765 11.3838 47.3285 11.3844 47.1843 11.3737C47.1434 11.3705 47.1018 11.3673 47.0634 11.3522C46.9544 11.3092 46.9003 11.1728 46.9299 11.0597C46.9513 10.9789 47.008 10.9119 47.0773 10.8671C47.1585 10.8146 47.2517 10.8228 47.3468 10.8203C47.5691 10.8153 47.7914 10.8317 48.0137 10.8412C48.8406 10.8753 49.6668 10.9163 50.4937 10.9454C50.6764 10.9517 50.7412 10.8595 50.7173 10.6567C50.6587 10.1514 50.6253 9.64287 50.5939 9.13564C50.5372 8.22287 50.8401 7.44212 51.5114 6.82751C51.8754 6.49335 52.269 6.18446 52.679 5.90779C53.0562 5.6526 53.2974 5.8162 53.419 6.25963C53.601 6.92415 53.5959 7.61836 53.4234 8.28415C53.2546 8.9354 52.9473 9.54117 52.6116 10.1198C52.5203 10.2758 52.4384 10.4382 52.2886 10.5443C52.2432 10.5765 52.1979 10.6081 52.1525 10.6403C52.1254 10.6592 52.0977 10.6795 52.0807 10.7079C52.0631 10.7363 52.0593 10.7755 52.0795 10.8014C52.099 10.826 52.1355 10.8317 52.1664 10.8247C52.1972 10.8178 52.2243 10.8007 52.2527 10.7856C52.3314 10.7445 52.4101 10.735 52.497 10.7338C52.5883 10.7319 52.6815 10.711 52.7716 10.6978C52.9605 10.6706 53.1494 10.6409 53.3377 10.61C53.7143 10.5474 54.0884 10.4773 54.4619 10.3984C54.841 10.3175 55.2188 10.2278 55.5936 10.128C55.9645 10.0288 56.3279 9.9006 56.6988 9.80079C56.9828 9.72436 57.2631 9.64982 57.5389 9.54496C57.5565 9.53802 57.5748 9.53107 57.5893 9.51843C57.6195 9.49127 57.6245 9.4439 57.6126 9.40473C57.6 9.36557 57.5748 9.33209 57.5515 9.29861C57.3531 9.01057 57.2744 8.65557 57.2184 8.31573C57.1648 7.98915 57.1503 7.655 57.1825 7.32463C57.2505 6.62348 57.537 5.97791 57.9438 5.4113C57.9948 5.33992 58.0522 5.27738 58.1132 5.21485C58.1636 5.16368 58.2001 5.10241 58.2505 5.04998C58.374 4.92112 58.505 4.79984 58.6397 4.68424C58.9149 4.44863 59.2071 4.23386 59.4956 4.01593C59.5875 3.94645 59.6795 3.87696 59.7702 3.80621C60.0277 3.60597 60.3155 3.76768 60.4679 4.12837C60.7299 4.74804 60.6871 5.39929 60.6128 6.04234C60.5731 6.38597 60.4749 6.72012 60.3382 7.03785C60.2368 7.2722 60.1291 7.50529 59.9887 7.71943C59.8388 7.94683 59.6574 8.15402 59.4836 8.36563C59.4408 8.41806 59.398 8.47049 59.3671 8.5305C59.3596 8.54439 59.3545 8.56334 59.3658 8.57408C59.3709 8.57851 59.3778 8.57977 59.3854 8.5804C59.4238 8.58293 59.4609 8.56524 59.4949 8.54692C59.772 8.401 60.034 8.22477 60.2733 8.02263C60.4478 7.87545 60.6506 7.76933 60.8338 7.63289C61.531 7.11302 62.2036 6.56094 62.8881 6.02528C63.0405 5.9059 63.0361 5.78335 63.0311 5.5869C63.0204 5.20221 63.0764 4.79415 63.2068 4.4322C63.4543 3.74431 63.7912 3.09369 64.1691 2.47023C64.358 2.15881 64.557 1.85308 64.761 1.55114C64.9626 1.25299 65.1521 0.93905 65.3845 0.664272C65.433 0.607422 65.4821 0.551203 65.5319 0.495615C65.6068 0.409076 65.683 0.323169 65.7693 0.248C65.8808 0.150722 66.0092 0.0730259 66.1465 0.0193337C66.178 0.00733192 66.2108 -0.00340634 66.2435 0.00101537C66.2731 0.00480541 66.2983 0.0199654 66.3229 0.0363889C66.5798 0.208204 66.7416 0.490562 66.8657 0.774183C66.9816 1.03822 67.0905 1.32374 67.139 1.60926C67.19 1.91246 67.1913 2.22008 67.2341 2.52329C67.3613 3.41647 66.8865 4.41704 66.2328 5.00892C66.0835 5.1441 65.9173 5.25843 65.7504 5.3715C65.3064 5.67155 64.8467 5.9678 64.3353 6.13898C64.1218 6.21036 63.8718 6.21415 63.6778 6.32027C63.4581 6.44092 63.2805 6.62285 63.0745 6.76434C62.9272 6.86604 62.7974 6.98858 62.6576 7.10165C62.5033 7.22673 62.3516 7.35495 62.1935 7.4756C62.1154 7.53624 62.0361 7.59625 61.9573 7.65563C61.9195 7.68406 61.8049 7.76681 61.9252 7.7807C62.0751 7.79839 62.247 7.77312 62.3963 7.74533C62.7735 7.67585 63.1463 7.55267 63.5261 7.52866C64.6263 7.45792 65.5728 7.81987 66.3096 8.66062C66.4066 8.7718 66.5143 8.89182 66.5924 9.01625C66.7114 9.20576 66.816 9.40347 66.906 9.60813C66.9293 9.66182 66.9526 9.71868 66.9457 9.77742C66.9425 9.80521 66.9325 9.83174 66.9211 9.85764C66.8928 9.9265 66.8569 9.99219 66.8147 10.0528C66.627 10.3213 66.3178 10.4754 66.0105 10.5841C65.7548 10.6744 65.4689 10.7755 65.1975 10.7755C64.9153 10.7748 64.6319 10.73 64.3649 10.6384C63.7459 10.4268 63.1255 10.1924 62.5518 9.88291C61.9769 9.5715 61.4478 9.16975 60.9201 8.78001C60.7312 8.63978 60.6046 8.59998 60.4056 8.744C59.8319 9.16028 59.2191 9.52159 58.5799 9.8248C57.935 10.1305 57.2681 10.356 56.5892 10.5689C56.4053 10.627 56.1937 10.6359 56.0016 10.6637C55.9765 10.6674 55.9469 10.675 55.9387 10.699C55.9286 10.7294 55.9607 10.7565 55.989 10.7704C56.0552 10.8026 56.1263 10.8216 56.1969 10.8424C56.382 10.8967 56.5647 10.9586 56.7441 11.0275C56.8292 11.0597 56.9186 11.1121 57.0067 11.1311C57.0741 11.1456 57.139 11.1551 57.2058 11.1772C57.4684 11.2619 57.7184 11.385 57.9451 11.5423C58.3677 11.836 58.7002 12.2428 58.9414 12.6958C59.1662 13.1177 59.3161 13.5801 59.398 14.0507C59.4162 14.1549 59.4313 14.2591 59.442 14.364C59.483 14.7575 59.3425 14.8959 58.9452 14.9527C56.9224 15.2433 55.2843 14.0425 54.5091 12.3831C54.4178 12.1873 54.3687 11.975 54.3284 11.764C54.3095 11.6674 54.3013 11.5644 54.2761 11.4703C54.2496 11.3724 54.2289 11.2884 54.2673 11.1879Z" fill="#7D4D38"/>
<path d="M80.8005 49.6239C80.3961 49.6289 79.9925 49.6498 79.5863 49.6574C78.5106 49.6763 77.4356 49.6965 76.3606 49.7161C75.2856 49.7351 74.2106 49.7527 73.135 49.7692C70.4314 49.809 67.7265 49.8854 65.023 49.8551C62.8918 49.8317 60.762 49.6681 58.6309 49.5708C57.7265 49.5298 56.8209 49.514 55.9172 49.4603C53.5537 49.3194 51.1927 49.1419 48.8286 49.0206C46.8713 48.9196 44.9108 48.84 42.9516 48.8179C40.0113 48.7844 37.0696 48.84 34.1293 48.8014C30.6826 48.7572 27.2359 48.6505 23.7898 48.5747C22.4648 48.545 21.1397 48.5191 19.8147 48.5058C19.5439 48.5027 19.2693 48.5418 19.0017 48.5936C17.4613 48.8911 15.9058 48.984 14.3383 49.0124C11.823 49.0579 9.30837 49.1653 6.79309 49.2202C6.11357 49.2354 5.43154 49.1217 4.75139 49.1286C3.62412 49.1406 2.49747 49.2013 1.37082 49.2442C1.17685 49.2518 0.982884 49.2651 0.788917 49.2765C0.659185 49.284 0.445695 49.3125 0.332338 49.2367C0.319113 49.2278 0.306517 49.2171 0.294551 49.2057C0.249838 49.1628 0.209534 49.111 0.196939 49.0503C0.155374 48.8539 0.48663 48.7654 0.629586 48.7471C2.26886 48.5355 3.91318 48.4414 5.56631 48.5121C6.28424 48.5437 7.00343 48.6031 7.7201 48.5829C10.1233 48.5172 12.5252 48.3877 14.929 48.3492C16.4625 48.3251 17.9594 48.0137 19.4765 47.9019C20.7701 47.8065 22.0762 47.8735 23.3767 47.8868C24.3068 47.8962 25.2364 47.9449 26.1665 47.9607C28.1138 47.9935 30.0616 48.0194 32.0088 48.0422C35.283 48.0801 38.5578 48.0946 41.8313 48.1533C44.1746 48.195 46.5186 48.2601 48.8601 48.3744C51.5347 48.5058 54.2055 48.7187 56.8795 48.8652C58.6258 48.9613 60.3797 48.9448 62.1223 49.0806C65.1848 49.3194 68.2486 49.2297 71.3112 49.1962C77.0175 49.1343 82.7231 49.0257 88.4294 48.9474C92.2376 48.8949 96.0464 48.8873 99.854 48.8109C101.998 48.7686 104.141 48.6366 106.283 48.5279C107.595 48.4616 108.905 48.3681 110.215 48.2765C110.647 48.2468 111.078 48.1906 111.508 48.1388C111.719 48.1135 111.931 48.1015 111.988 48.358C112.05 48.6378 111.84 48.737 111.621 48.7724C111.279 48.8267 110.932 48.8671 110.586 48.8886C108.631 49.0061 106.674 49.0958 104.721 49.2341C100.025 49.5664 95.3215 49.4009 90.6216 49.471C89.9226 49.4818 89.2235 49.4957 88.5239 49.5114C87.4482 49.5361 86.3726 49.567 85.297 49.5992C84.7592 49.615 84.2213 49.6315 83.6835 49.6479C83.4146 49.6561 83.1457 49.6643 82.8768 49.6725C82.742 49.6763 82.6079 49.6807 82.4731 49.6845C82.3541 49.6883 82.2483 49.6719 82.1311 49.6668C81.8944 49.6555 81.6569 49.6441 81.4195 49.6334C81.2129 49.6233 81.0064 49.6214 80.8005 49.6239Z" fill="#7D4D38"/>
<path d="M2.041 11.2352C2.02651 11.2282 2.01266 11.2194 2.00006 11.2086C1.94716 11.1619 1.93331 11.0836 1.93583 11.0122C1.93646 10.9781 1.94024 10.9446 1.94716 10.9111C1.96983 10.7974 2.19592 10.7993 2.28472 10.7981C3.49764 10.7797 4.71183 10.7109 5.9172 10.9452C8.13775 11.3779 10.3866 11.16 12.6236 11.2131C14.1854 11.2497 15.7478 11.2901 17.3096 11.2756C19.0938 11.2585 20.8772 11.1505 22.6607 11.1467C23.4234 11.1448 24.1841 11.3438 24.9493 11.3849C25.938 11.4379 26.9318 11.4057 27.9218 11.4436C29.4792 11.5043 31.0347 11.6268 32.5921 11.6578C33.6287 11.678 34.6678 11.587 35.7057 11.5415C36.3984 11.5106 37.0899 11.4581 37.7826 11.4386C38.4282 11.4215 39.0737 11.4499 39.7185 11.4285C40.0492 11.4177 40.3766 11.3198 40.7079 11.3009C40.9623 11.2863 41.2174 11.2806 41.4718 11.287C41.599 11.2901 41.7262 11.2958 41.8528 11.3059C41.9536 11.3135 42.0417 11.3299 42.0909 11.4304C42.1236 11.4979 42.1274 11.5763 42.1249 11.6521C42.123 11.6982 42.1186 11.7462 42.0934 11.7841C42.0732 11.8144 42.0417 11.8353 42.009 11.8504C41.8465 11.9243 41.6897 11.8732 41.5228 11.8662C41.3509 11.8593 41.1777 11.8409 41.007 11.8536C40.2312 11.9111 39.4572 11.9888 38.6813 12.0387C37.5956 12.1094 36.5086 12.1915 35.4217 12.2136C34.2969 12.2364 33.1709 12.206 32.0461 12.1757C30.7217 12.1397 29.398 12.0532 28.0729 12.0368C26.7863 12.0216 25.5029 12.1385 24.2175 11.8845C23.4952 11.7411 22.7363 11.7373 21.9944 11.7456C19.6152 11.7721 17.2366 11.8631 14.8567 11.8725C12.9353 11.8807 11.0114 11.7443 9.09184 11.7904C7.76241 11.8226 6.4928 11.5156 5.19423 11.3842C5.01475 11.3666 4.83526 11.3514 4.65578 11.3394C4.25588 11.3116 3.85535 11.2964 3.45545 11.2851C3.25455 11.2794 3.05429 11.275 2.85402 11.2699C2.66572 11.2655 2.47239 11.2446 2.28472 11.2497C2.2356 11.251 2.18647 11.2579 2.13735 11.256C2.1046 11.2541 2.0706 11.2484 2.041 11.2352Z" fill="#7D4D38"/>
<path d="M70.794 11.1008C70.8097 11.0742 70.8336 11.0509 70.8595 11.0332C71.0547 10.8986 71.3437 10.9403 71.5673 10.9353C71.8331 10.9283 72.0995 10.9214 72.3652 10.9144C73.1713 10.8929 73.9774 10.8702 74.7835 10.8569C75.589 10.8437 76.3951 10.8392 77.2005 10.8544C78.1565 10.8727 79.1075 11.1292 80.0609 11.27C80.367 11.3143 80.6756 11.3541 80.9842 11.3604C82.5088 11.3926 84.0354 11.4652 85.5587 11.4248C87.477 11.3743 89.3921 11.2094 91.3104 11.1304C92.4868 11.0818 93.6657 11.0786 94.8434 11.097C95.9127 11.1134 96.9675 11.0799 98.0167 10.8222C98.3732 10.7344 98.7366 10.6813 99.0974 10.6144C99.2794 10.5809 99.4614 10.5436 99.6409 10.4969C99.8128 10.452 99.9765 10.3977 100.147 10.344C100.327 10.2878 100.507 10.2316 100.694 10.1981C100.878 10.1652 101.065 10.1697 101.252 10.164C101.656 10.1526 102.059 10.14 102.463 10.1273C103.27 10.1033 104.078 10.0806 104.885 10.0673C105.289 10.0604 105.692 10.056 106.096 10.0547C106.418 10.0534 106.735 10.1229 107.045 10.2025C107.201 10.2423 107.355 10.2891 107.512 10.3257C107.643 10.356 107.757 10.3958 107.858 10.4912C107.939 10.5664 108.002 10.6801 107.968 10.7855C107.938 10.8746 107.848 10.9289 107.76 10.9624C107.626 11.013 107.447 11.0534 107.307 11.0079C107.148 10.9555 106.991 10.9018 106.832 10.8538C106.522 10.7615 106.202 10.6864 105.877 10.6851C105.531 10.6839 105.185 10.6857 104.838 10.6902C104.032 10.7003 103.227 10.723 102.421 10.7477C102.22 10.7533 102.018 10.7597 101.817 10.7653C101.625 10.771 101.426 10.79 101.236 10.7761C100.882 10.7502 100.564 10.9454 100.226 11.0142C99.8815 11.0843 99.5439 11.1816 99.1963 11.2429C98.8411 11.3048 98.4834 11.3566 98.1339 11.445C97.1477 11.6933 96.1507 11.7356 95.1475 11.7375C94.1059 11.7394 93.0624 11.6851 92.0226 11.7242C90.8847 11.7659 89.7511 11.9308 88.6137 11.9624C86.7547 12.0154 84.8944 12.0192 83.0347 12.0135C82.0566 12.0104 81.0748 11.9832 80.1019 11.891C79.3783 11.8221 78.671 11.5537 77.9481 11.5088C76.465 11.4166 74.9768 11.4122 73.4906 11.3768C73.3458 11.3743 73.2003 11.3711 73.0554 11.3692C72.6524 11.3635 72.25 11.361 71.8469 11.3541C71.68 11.3515 71.5037 11.3673 71.34 11.3433C71.1819 11.3199 71.003 11.3648 70.8576 11.2808C70.8191 11.2587 70.7839 11.2246 70.777 11.181C70.7719 11.1526 70.7795 11.1254 70.794 11.1008Z" fill="#7D4D38"/>
<path d="M100.517 24.6478C100.458 24.6611 100.408 24.7116 100.383 24.7685C100.353 24.8354 100.351 24.9106 100.348 24.9839C100.341 25.2283 100.333 25.4721 100.326 25.7166C100.319 25.9541 100.231 26.1569 100.181 26.3874C100.124 26.654 100.064 26.9206 100.003 27.1871C99.8802 27.719 99.7505 28.2496 99.6132 28.7777C99.3374 29.837 99.0313 30.8887 98.6963 31.9304C98.5489 32.3877 98.3959 32.8425 98.2378 33.296C98.161 33.5165 98.0904 33.7433 98.0016 33.9587C97.9399 34.1077 97.8026 34.3288 97.9046 34.4899C98.0438 34.7091 98.6874 34.5487 98.8965 34.5341C99.3084 34.5051 99.7203 34.4754 100.132 34.4463C100.429 34.4249 100.727 34.4053 101.025 34.3844C101.245 34.3693 101.466 34.3541 101.687 34.3389C101.879 34.325 102.135 34.3743 102.305 34.2796C102.339 34.2606 102.37 34.2372 102.395 34.2076C102.535 34.0395 102.44 33.7174 102.404 33.5272C102.352 33.255 102.3 32.9827 102.248 32.7105C101.815 30.4504 101.382 28.1909 100.95 25.9307C100.909 25.7198 100.869 25.5094 100.829 25.2991C100.797 25.1298 100.797 24.8771 100.696 24.7318C100.663 24.6819 100.608 24.644 100.548 24.644C100.538 24.644 100.527 24.6453 100.517 24.6478ZM107.912 43.5873C107.893 43.8204 107.837 44.0497 107.723 44.2676C107.488 44.7136 106.94 45.0111 106.453 45.0515C105.588 45.1235 104.899 44.6826 104.631 43.8324C104.428 43.1912 104.26 42.5368 104.11 41.8805C103.942 41.1414 103.799 40.3954 103.681 39.6463C103.621 39.2603 103.567 38.8737 103.52 38.4859C103.494 38.2629 103.524 37.7929 103.3 37.6597C103.118 37.551 102.774 37.63 102.575 37.6432C102.295 37.6615 102.014 37.6799 101.734 37.6975C101.176 37.7323 100.617 37.7632 100.057 37.7816C99.4633 37.8005 98.8682 37.7752 98.2768 37.7197C97.9746 37.6906 97.6723 37.6546 97.3712 37.6129C97.1458 37.5813 96.8618 37.4569 96.664 37.6211C96.5072 37.7512 96.5431 37.9407 96.4839 38.1145C96.4033 38.3513 96.3145 38.5851 96.2295 38.82C96.0645 39.2799 95.8989 39.7398 95.7339 40.199C95.4026 41.1181 95.0707 42.0378 94.7363 42.9556C94.6141 43.2917 94.4731 43.6239 94.3068 43.9398C94.1185 44.2966 93.8093 44.5165 93.4069 44.5992C93.1059 44.6611 92.7185 44.6112 92.4673 44.4186C92.2802 44.2752 92.0063 44.0162 91.8986 43.8027C91.8388 43.6852 91.8199 43.5513 91.8142 43.4199C91.7972 42.996 91.9106 42.5791 92.0233 42.1704C92.4263 40.7081 92.9547 39.2812 93.4434 37.8435C94.1752 35.6907 94.9057 33.538 95.6325 31.3833C96.3044 29.3898 96.7912 27.3482 97.1332 25.2725C97.4689 23.2341 97.8574 21.2064 98.3354 19.1971C98.4645 18.6557 98.6648 18.1251 98.8871 17.6135C99.1881 16.9212 99.7266 16.4828 100.48 16.3482C101.227 16.215 101.979 16.5668 102.346 17.2307C102.459 17.4354 102.545 17.6609 102.605 17.887C103.304 20.5356 103.888 23.2107 104.406 25.901C104.823 28.0658 105.251 30.2286 105.711 32.3852C105.843 33.0055 106.1 33.5993 106.305 34.2038C106.386 34.4438 106.473 34.6826 106.571 34.9169C106.773 35.3989 106.853 35.9061 106.91 36.4216C107.023 37.4335 107.083 38.4758 107.265 39.4757C107.453 40.5072 107.64 41.5394 107.827 42.5709C107.889 42.9063 107.938 43.2512 107.912 43.5873Z" fill="#7D4D38"/>
<path d="M15.9452 24.2013C15.9515 25.4792 15.9937 26.7564 16.0566 28.0356C16.0869 28.647 16.1681 29.2559 16.2399 29.8642C16.3249 30.5856 16.4288 31.3051 16.5189 32.0258C16.6316 32.9291 16.7387 33.8331 16.8483 34.737C16.9805 35.8317 17.126 36.9251 17.2425 38.0217C17.308 38.642 17.3987 39.2598 17.5183 39.8719C17.5794 40.1826 17.6474 40.4922 17.7243 40.7998C17.7809 41.0278 17.8068 41.4296 18.0001 41.5831C18.0656 41.6355 18.1443 41.669 18.223 41.6974C18.2841 41.7195 18.3477 41.7391 18.412 41.7302C18.638 41.6987 18.7079 41.3872 18.8024 41.2186C18.946 40.9621 19.0612 40.6892 19.1097 40.3974C19.2477 39.5655 19.2961 38.7273 19.3163 37.8865C19.3346 37.1241 19.3333 36.3616 19.3654 35.5998C19.424 34.2266 19.5014 32.8533 19.5701 31.4801C19.611 30.6665 19.6463 29.8529 19.691 29.0393C19.7603 27.7892 19.8535 26.541 19.7842 25.2859C19.713 24.0004 19.6702 22.7137 19.6148 21.427C19.5997 21.0682 19.5858 20.71 19.5657 20.3512C19.5342 19.7764 19.3383 19.2976 18.8037 19.0026C18.5404 18.8573 18.3043 18.8428 18.0454 19.0184C17.7173 19.242 17.3533 19.386 16.9534 19.4303C16.8413 19.4429 16.7311 19.4757 16.6215 19.5016C16.4351 19.5459 16.3004 19.6596 16.2594 19.844C16.1618 20.2786 16.0258 20.7138 16.0044 21.1535C16.0006 21.2211 15.9981 21.2886 15.9949 21.3562C15.9552 22.305 15.9401 23.2531 15.9452 24.2013ZM17.9434 45.0434C17.4818 44.9985 17.0258 44.8596 16.6102 44.6246C16.0554 44.31 15.5944 43.8413 15.3016 43.2728C14.9986 42.6841 14.833 42.0499 14.6982 41.4056C14.3997 39.983 14.185 38.5472 14.0099 37.1045C13.8336 35.6535 13.6623 34.202 13.4809 32.7523C13.382 31.962 13.2529 31.1756 13.1622 30.3847C13.0816 29.6804 13.001 28.9736 12.9809 28.2661C12.9399 26.8044 12.921 25.3415 12.9299 23.8791C12.9355 22.9872 12.9513 22.0928 13.0703 21.2046C13.1679 20.475 13.2945 19.7505 13.508 19.0468C13.8619 17.8801 14.6258 17.0703 15.7178 16.5536C15.9282 16.4544 16.131 16.3281 16.3167 16.1872C16.9415 15.711 17.6638 15.4482 18.4497 15.4444C18.8503 15.4425 19.2552 15.4823 19.6356 15.608C20.2282 15.8038 20.5878 16.2713 21.1029 16.5915C21.9248 17.1013 22.3984 17.8561 22.5904 18.7853C22.7095 19.3671 22.785 19.959 22.8499 20.5496C23.0621 22.5021 23.1119 24.4628 23.1031 26.4248C23.0993 27.1506 23.0388 27.8764 23.0004 28.6022C22.9563 29.424 22.906 30.2451 22.8619 31.067C22.7775 32.6405 22.6906 34.214 22.615 35.7881C22.581 36.505 22.5678 37.2239 22.5514 37.9415C22.5331 38.7033 22.5136 39.4644 22.3877 40.218C22.1773 41.482 21.6987 42.6392 20.9713 43.6878C20.2786 44.6871 19.0927 45.1552 17.9434 45.0434Z" fill="#7D4D38"/>
<path d="M3.12929 37.82C3.04869 37.899 3.09277 38.0746 3.09277 38.194C3.09151 39.3329 3.09214 40.4724 3.08773 41.6113C3.0871 41.7598 3.15701 41.8008 3.28737 41.8274C4.24964 42.0219 5.0803 41.5298 5.34795 40.5811C5.59986 39.691 5.3341 38.9059 4.81139 38.1896C4.64577 37.9628 4.39827 37.8491 4.11928 37.803C3.83085 37.755 3.54179 37.7809 3.25273 37.7796C3.19479 37.779 3.15512 37.7948 3.12929 37.82ZM0.118396 21.6599C0.138548 20.7857 0.236162 19.914 0.306066 19.0416C0.335035 18.6841 0.375969 18.3272 0.42509 17.9722C0.500662 17.4309 0.801059 17.0696 1.33636 16.9464C1.78538 16.8428 2.24007 16.7474 2.69791 16.695C4.34222 16.5067 5.99472 16.5901 7.64407 16.6009C7.88275 16.6021 8.13151 16.6609 8.35759 16.743C9.08371 17.0064 9.4962 17.6911 9.41874 18.4592C9.34191 19.2185 8.76316 19.823 8.00115 19.931C7.82922 19.9557 7.65352 19.9689 7.4797 19.9696C6.11689 19.9715 4.75472 19.9683 3.39254 19.967C3.25273 19.9664 3.12678 19.9544 3.06569 20.1155C2.99831 20.2924 3.06758 20.5848 3.06443 20.7857C3.06191 20.9676 3.06002 21.1502 3.05813 21.3321C3.0531 21.8008 3.04994 22.2695 3.0468 22.7382C3.03924 23.9434 3.03483 25.1487 3.03168 26.3545C3.02916 27.6311 3.0279 28.9071 3.02916 30.1837C3.03042 31.1881 3.03231 32.1924 3.0405 33.1962C3.04113 33.3364 3.03735 33.4773 3.03672 33.6169C3.03609 33.7931 2.95989 34.0868 3.03357 34.2448C3.14819 34.4873 3.71938 34.385 3.93224 34.3692C4.38882 34.3363 4.83847 34.3648 5.2812 34.4905C5.88325 34.6617 6.40155 34.9794 6.84049 35.4184C7.78451 36.3627 8.43253 37.4777 8.67247 38.8035C8.86329 39.8559 8.70522 40.8742 8.3324 41.8703C7.668 43.6428 6.36754 44.6162 4.545 44.9605C3.7452 45.1114 2.94604 45.0634 2.14498 44.9857C1.91952 44.9642 1.69155 44.9497 1.4705 44.9049C0.865295 44.7823 0.297249 44.3724 0.0894273 43.7723C-0.0113349 43.4823 0.0327489 43.2038 0.0188941 42.9069C0.00692855 42.634 0 42.3592 0 42.0832V35.2447C0 32.9643 0.0705338 23.7962 0.118396 21.6599Z" fill="#7D4D38"/>
<path d="M84.0463 41.7221C84.2169 41.885 84.5929 41.8042 84.7988 41.8042C85.064 41.8042 85.6421 41.9292 85.8096 41.6696C85.9362 41.4738 85.8877 41.235 85.8883 41.0146C85.8896 40.7303 85.8902 40.4454 85.8915 40.1612C85.894 39.5914 85.8959 39.0223 85.8984 38.4525C85.9022 37.3142 85.9072 36.1753 85.911 35.0364C85.9198 32.7592 85.9274 30.4814 85.9305 28.2042C85.9318 27.4525 85.9324 26.7008 85.9324 25.9492C85.933 24.8469 85.8474 23.744 85.7926 22.6423C85.7271 21.3297 85.6364 20.0177 85.6849 18.7026C85.6988 18.3267 85.7328 17.9509 85.7806 17.5782C85.8348 17.155 86.0691 16.8499 86.4627 16.6825C86.9186 16.4886 87.3985 16.4077 87.8929 16.4178C88.1832 16.4241 88.3803 16.5896 88.5296 16.8215C88.7638 17.1828 88.8627 17.5921 88.9043 18.0122C88.9496 18.4739 88.9798 18.9376 88.9968 19.4012C89.0428 20.6178 89.0982 21.8351 89.1133 23.0529C89.148 25.8298 89.1719 28.6072 89.1782 31.3847C89.1801 32.3297 89.1215 33.2753 89.0812 34.2203C89.034 35.3251 89.0416 36.4267 89.1461 37.5284C89.1946 38.0337 89.2242 38.5409 89.2594 39.0475C89.3369 40.1486 89.415 41.2496 89.4862 42.3506C89.5013 42.5773 89.4988 42.8066 89.4855 43.0334C89.4522 43.6007 89.1952 44.0327 88.6876 44.3037C88.1989 44.5652 87.6781 44.7377 87.1378 44.8514C86.4431 44.9973 85.7391 45.0668 85.0306 45.0592C83.7641 45.0453 82.4977 45.02 81.2312 44.9929C79.9654 44.9657 78.6989 44.9328 77.4331 44.8987C76.9356 44.8848 76.4375 44.8672 75.9513 44.7471C75.8159 44.7143 75.6805 44.6739 75.5526 44.6202C74.9745 44.3763 74.6464 43.9342 74.6137 43.3107C74.5771 42.6114 74.5702 41.9097 74.5727 41.2091C74.5885 36.4248 74.6055 31.6405 74.6326 26.8569C74.6458 24.6056 74.6836 22.3537 74.7037 20.1018C74.7094 19.4429 74.7717 18.791 74.8819 18.1423C74.9248 17.8896 75.0022 17.6477 75.1477 17.4342C75.4582 16.9788 75.8845 16.7394 76.4406 16.7962C76.9828 16.8518 77.3664 17.1544 77.5673 17.6565C77.6592 17.889 77.7127 18.1455 77.7329 18.3956C77.7858 19.0582 77.8444 19.7234 77.8431 20.3873C77.8349 25.6535 77.8135 30.9192 77.7965 36.1854C77.7927 37.2277 77.7744 38.2712 77.794 39.3135C77.8034 39.7999 77.8236 40.2856 77.8475 40.772C77.8588 41.0095 77.8721 41.247 77.8834 41.4839C77.8928 41.681 77.8355 41.8667 77.9331 42.0524C78.117 42.4017 78.67 42.0789 78.9578 41.9962C79.4011 41.8692 79.8439 41.741 80.2866 41.6115C80.5876 41.5237 80.6814 41.4037 80.694 41.0853C80.7293 40.1833 80.7728 39.2819 80.791 38.3799C80.8559 35.1034 80.9119 31.8275 80.9711 28.551C81.0032 26.7552 81.0385 24.9593 81.0687 23.1635C81.087 22.1023 81.1626 21.0467 81.3735 20.0045C81.3874 19.9356 81.4019 19.8674 81.4208 19.8004C81.5782 19.2503 81.9265 18.9578 82.4637 18.9249C83.0109 18.8902 83.494 19.1789 83.6829 19.6931C83.7906 19.9868 83.8712 20.2957 83.9178 20.6052C83.9795 21.0196 84.0242 21.4409 84.028 21.8591C84.0727 26.3976 84.1036 30.9362 84.1458 35.4748C84.1552 36.4754 84.0752 37.469 84.0028 38.4651C83.965 38.9888 83.9751 39.5156 83.9707 40.0412C83.9688 40.3134 83.9682 40.5857 83.9688 40.8579C83.9688 41.0897 83.8869 41.4397 83.994 41.6507C84.0078 41.6785 84.0255 41.7018 84.0463 41.7221Z" fill="#7D4D38"/>
<path d="M41.7858 41.6072C41.8815 41.7177 42.0415 41.7095 42.2046 41.7038C42.4911 41.6931 42.7783 41.6842 43.0648 41.6621C43.7349 41.611 44.4069 41.568 45.0725 41.4815C46.0228 41.3583 46.9688 41.1978 47.9165 41.0563C48.0803 41.0317 48.5917 41.0683 48.6716 40.8896C48.688 40.8529 48.6874 40.8106 48.6855 40.7696C48.6565 40.1891 48.4695 39.5719 48.3486 39.0009C48.2201 38.3964 48.0759 37.7956 47.9065 37.2019C47.2654 34.9645 46.8831 32.681 46.6526 30.3678C46.5689 29.527 46.4838 28.6838 46.3384 27.8525C46.2559 27.38 46.1551 26.91 46.0493 26.4426C45.9964 26.2076 45.9422 25.9739 45.8887 25.7402C45.8478 25.5633 45.8346 25.3397 45.7709 25.1735C45.7445 25.1053 45.6815 25.0466 45.6085 25.0497C45.5392 25.0535 45.4825 25.1129 45.4611 25.1792C45.4195 25.3037 45.4302 25.4591 45.3981 25.5911C45.3591 25.7503 45.3207 25.9094 45.2816 26.068C45.201 26.3977 45.1204 26.7268 45.0398 27.0566L44.5561 29.0324C44 31.3033 43.4446 33.5754 42.8967 35.8482C42.5069 37.464 42.0522 39.0653 41.816 40.7159C41.782 40.9527 41.6548 41.2263 41.7159 41.465C41.7316 41.5269 41.7556 41.5731 41.7858 41.6072ZM38.9972 41.5888C39.0142 41.5642 39.0205 41.5326 39.0237 41.5023C39.0381 41.3564 38.9966 41.2155 38.9752 41.0721C38.955 40.9426 38.9789 40.8498 38.9884 40.7266C39.0123 40.4171 38.9689 40.0943 38.9827 39.7823C39.0092 39.1746 39.0961 38.5701 39.2327 37.9782C39.8361 35.3776 40.4677 32.7833 41.0912 30.1871C41.5024 28.474 41.9382 26.766 42.3242 25.0472C42.5642 23.9778 42.7179 22.8888 42.9364 21.8137C43.2072 20.4834 43.5019 19.1588 43.7935 17.8329C43.8332 17.6497 43.9024 17.4703 43.9793 17.2991C44.5089 16.1166 45.8383 16.1147 46.5619 16.687C46.9209 16.9719 47.147 17.3433 47.2629 17.7804C47.4511 18.493 47.6168 19.2118 47.812 19.9224C48.1433 21.1271 48.472 22.3329 48.8347 23.5287C49.4009 25.3915 49.8084 27.2871 50.0577 29.2175C50.1988 30.3147 50.292 31.4189 50.4583 32.5117C50.593 33.3992 50.7776 34.2816 50.9866 35.1552C51.338 36.6245 51.68 38.0951 51.9067 39.5902C51.9659 39.9812 52.0043 40.376 52.0648 40.7664C52.129 41.1827 52.2688 41.3014 52.6794 41.3431C53.0359 41.3785 53.393 41.4177 53.7475 41.4695C54.6538 41.6015 55.2854 42.3683 55.2331 43.2621C55.184 44.1067 54.5228 44.7535 53.6795 44.7346C53.1612 44.7232 52.6429 44.6607 52.1271 44.5988C51.0553 44.4699 49.9815 44.4257 48.9034 44.4497C47.9493 44.4712 47.0091 44.6196 46.0726 44.7794C44.7469 45.0049 43.4144 45.0567 42.0761 45.0106C40.7309 44.9639 39.3851 44.9077 38.0406 44.8375C37.7585 44.8236 37.4732 44.7529 37.2011 44.6701C36.6129 44.4901 36.1677 43.9462 36.1966 43.2021C36.225 42.4858 36.6759 41.9464 37.3667 41.8125C37.8523 41.6564 38.3977 41.755 38.8864 41.6444C38.9242 41.6356 38.9651 41.6255 38.9909 41.5964C38.9928 41.5939 38.9947 41.5914 38.9972 41.5888Z" fill="#7D4D38"/>
<path d="M65.4761 32.5209C65.4824 32.5127 65.4887 32.5033 65.4931 32.4938C65.5183 32.4439 65.5158 32.3845 65.5126 32.3283C65.4881 31.9051 65.3609 31.4755 65.2771 31.0599C64.8287 28.8332 64.3803 26.606 63.9301 24.3793C63.9112 24.2858 63.9426 24.145 63.7852 24.1437C63.6271 24.1418 63.6561 24.282 63.6378 24.3761C63.1964 26.6104 62.7555 28.8446 62.3153 31.0788C62.2631 31.3467 62.2102 31.6151 62.1573 31.883C62.1258 32.0428 61.979 32.3757 62.066 32.5235C62.1686 32.6985 62.5761 32.5967 62.7461 32.5967H63.6844H64.5315C64.7846 32.5967 65.0882 32.6454 65.3363 32.5993C65.3898 32.5892 65.4427 32.5633 65.4761 32.5209ZM65.978 35.5783C65.808 35.4557 65.5618 35.486 65.3621 35.4803C65.1197 35.4728 64.8772 35.469 64.6348 35.4658C64.2922 35.4614 63.9496 35.4658 63.6076 35.4544C63.2027 35.4418 62.7977 35.4285 62.3928 35.4159C62.1151 35.4071 61.6541 35.2877 61.4085 35.4582C61.2882 35.5416 61.2951 35.7545 61.2617 35.8834C60.688 38.086 60.0916 40.2836 59.5034 42.4831C59.3926 42.8968 59.2673 43.3068 59.1376 43.7155C59.0878 43.8721 59.021 44.0288 58.9354 44.1684C58.5915 44.7293 57.9882 44.9365 57.3679 44.7198C56.9926 44.5897 56.757 44.3288 56.6481 43.9479C56.4793 43.3554 56.4453 42.7623 56.6065 42.1597C56.8332 41.3151 57.0656 40.4712 57.264 39.6197C57.6771 37.8472 58.0833 36.0735 58.4662 34.2941C58.9467 32.0617 59.409 29.8256 59.863 27.5876C60.1137 26.3533 60.3209 25.1095 60.5684 23.874C60.9947 21.7503 61.5974 19.6771 62.4022 17.6652C62.486 17.4555 62.5855 17.2458 62.7146 17.062C63.1095 16.4985 63.6662 16.2724 64.3362 16.3893C64.9893 16.5036 65.4251 16.9028 65.5914 17.5465C65.7753 18.2578 65.9157 18.9798 66.0826 19.6954C66.531 21.6208 66.9794 23.5461 67.4378 25.4702C67.8428 27.1732 68.174 28.8907 68.4732 30.6152C68.8838 32.9865 69.2937 35.3578 69.7289 37.724C70.0092 39.247 70.3347 40.7611 70.6402 42.2797C70.7328 42.7383 70.7479 43.2013 70.6981 43.6656C70.6219 44.3825 70.1893 44.7975 69.5299 44.9915C68.6904 45.2391 67.6822 44.8045 67.4907 43.7521C67.4485 43.5197 67.3931 43.2897 67.3471 43.0579C67.0732 41.6764 66.7873 40.2969 66.5322 38.9116C66.3716 38.0342 66.2589 37.148 66.1241 36.2655C66.1034 36.1297 66.0643 35.985 66.0605 35.8486C66.0574 35.7469 66.1053 35.6882 66.0089 35.6029C65.9988 35.594 65.9887 35.5858 65.978 35.5783Z" fill="#7D4D38"/>
<path d="M32.7919 19.8326C32.734 19.8812 32.683 19.9456 32.6414 20.0303C32.4985 20.3177 32.5262 20.6733 32.4796 20.9854C32.2214 22.7206 31.9518 24.4545 31.7056 26.1916C31.5677 27.1663 31.4386 28.1435 31.3548 29.1239C31.1256 31.816 31.2043 34.5158 31.1936 37.2124C31.1904 38.0911 31.1728 38.9698 31.1955 39.8478C31.2226 40.9128 31.2862 41.9778 31.3334 43.0434C31.3523 43.4641 31.2767 43.8671 31.0563 44.2291C30.6992 44.8159 30.1734 45.1166 29.4863 45.0502C28.7419 44.9782 28.1751 44.4881 27.9988 43.7749C27.9132 43.4287 27.8779 43.0693 27.8363 42.7137C27.7469 41.9563 27.7242 41.1958 27.7267 40.4333C27.7337 38.3987 27.7204 36.3641 27.7381 34.3295C27.7494 33.0573 27.7702 31.7832 27.847 30.5135C27.9163 29.3708 28.053 28.2307 28.1852 27.0924C28.3187 25.9541 28.4781 24.819 28.638 23.6839C28.7797 22.6738 28.934 21.6644 29.0889 20.6563C29.2174 19.8243 29.3547 18.9943 29.4888 18.1637C29.5002 18.0929 29.5197 18.0241 29.5329 17.9533C29.6752 17.1656 30.1872 16.5738 31.2528 16.5352C31.8064 16.515 32.3605 16.5055 32.9141 16.4866C34.4495 16.4342 35.9855 16.3798 37.5215 16.3242C37.8357 16.3129 38.1468 16.3205 38.4472 16.4253C39.6576 16.8473 39.8648 18.2805 39.179 19.0916C38.9384 19.3765 38.6349 19.5584 38.2602 19.5887C37.6014 19.6412 36.9421 19.6999 36.2821 19.7214C35.4879 19.7473 34.6919 19.7441 33.8972 19.7403C33.5225 19.7384 33.0747 19.5944 32.7919 19.8326Z" fill="#7D4D38"/>
<path d="M3.1409 58.5819C3.1409 58.7418 3.27315 58.8081 3.43437 58.8081C3.58804 58.8081 3.71777 58.7418 3.71777 58.5819C3.7121 56.7084 3.60252 54.3365 3.60252 54.3055C3.5937 54.1811 3.54206 54.0939 3.36825 54.0876C3.19254 54.0876 3.12012 54.1312 3.06218 54.2411C3.0477 54.2765 2.68999 54.9505 2.3178 56.1292C1.9305 54.9214 1.59546 54.2701 1.57909 54.2329C1.52115 54.1166 1.42606 54.0794 1.25224 54.0876C1.14266 54.0939 1.04757 54.1748 1.03938 54.3055C1.03938 54.3283 0.915317 56.7229 0.90902 58.5819C0.900203 58.6609 0.96066 58.8081 1.1943 58.8081C1.42606 58.8081 1.4777 58.6609 1.4777 58.5819C1.48588 57.6148 1.52115 56.4652 1.55012 55.6459C1.69685 56.0401 1.87256 56.4507 2.03189 57.0299C2.08416 57.1979 2.18492 57.2497 2.3178 57.2497C2.45635 57.2497 2.54326 57.2043 2.5949 57.0362C2.75423 56.4507 2.92993 56.0401 3.08296 55.6459C3.11193 56.4595 3.1409 57.6066 3.1409 58.5819ZM5.88667 58.8599C6.26705 58.8599 6.7696 58.7064 7.00954 57.9446C7.15628 57.4759 7.17958 56.8827 7.17958 56.3117C7.17958 55.6604 7.10464 55.1621 6.95161 54.8033C6.68899 54.1602 6.2299 54.0276 5.88667 54.0276C5.63225 54.0276 5.40428 54.1084 5.21598 54.2701C5.05476 54.4009 4.91621 54.5917 4.82111 54.8323C4.66808 55.2056 4.59566 55.704 4.59566 56.3117C4.59566 56.9055 4.61644 57.5131 4.76947 57.98C4.85827 58.2522 4.98233 58.4575 5.15615 58.6028C5.35452 58.779 5.60328 58.8599 5.88667 58.8599ZM5.88667 54.5999C6.05419 54.5999 6.27335 54.6498 6.42638 55.0231C6.54415 55.3099 6.60209 55.7413 6.60209 56.3117C6.60209 56.8392 6.5876 57.3742 6.46354 57.7683C6.3168 58.2231 6.09135 58.2895 5.88667 58.2895C5.35452 58.2895 5.17063 57.7683 5.17063 56.3117C5.17063 55.7849 5.23046 55.3452 5.35452 55.0521C5.51385 54.6498 5.74183 54.5999 5.88667 54.5999ZM10.5054 58.5883C10.4972 58.2434 10.4682 57.059 10.4619 56.289C10.4537 55.1766 10.4682 54.4236 10.4682 54.3718C10.4619 54.212 10.3378 54.0876 10.1766 54.0876H8.50523C8.36668 54.0876 8.22184 54.1665 8.22184 54.4236C8.22184 54.5999 8.26529 56.4279 8.25081 57.2851C8.23632 57.98 8.05432 58.1335 7.84083 58.4493C7.74826 58.5883 7.83516 58.7272 7.93026 58.7936C8.03984 58.8662 8.22814 58.8744 8.32323 58.75C8.56506 58.4348 8.81949 58.1335 8.82767 57.2851C8.83397 56.4216 8.81319 55.0521 8.805 54.658H9.89323C9.88505 55.09 9.88505 55.7331 9.88505 56.1955C9.87056 56.6421 9.93669 58.5592 9.93669 58.5965C9.93669 58.6754 10.0236 58.8163 10.2428 58.8081C10.4619 58.8081 10.5054 58.6691 10.5054 58.5883ZM12.7813 58.8599C13.1623 58.8599 13.6649 58.7064 13.9048 57.9446C14.0516 57.4759 14.0742 56.8827 14.0742 56.3117C14.0742 55.6604 13.9999 55.1621 13.8469 54.8033C13.5843 54.1602 13.1245 54.0276 12.7813 54.0276C12.5269 54.0276 12.2996 54.1084 12.1113 54.2701C11.95 54.4009 11.8115 54.5917 11.7158 54.8323C11.5627 55.2056 11.4909 55.704 11.4909 56.3117C11.4909 56.9055 11.5111 57.5131 11.6641 57.98C11.7536 58.2522 11.8776 58.4575 12.0514 58.6028C12.2498 58.779 12.4979 58.8599 12.7813 58.8599ZM12.7813 54.5999C12.9488 54.5999 13.168 54.6498 13.3217 55.0231C13.4394 55.3099 13.4974 55.7413 13.4974 56.3117C13.4974 56.8392 13.4829 57.3742 13.3588 57.7683C13.2121 58.2231 12.986 58.2895 12.7813 58.2895C12.2498 58.2895 12.0659 57.7683 12.0659 56.3117C12.0659 55.7849 12.1257 55.3452 12.2498 55.0521C12.4091 54.6498 12.6365 54.5999 12.7813 54.5999ZM16.7577 54.0876C16.5838 54.0876 16.4743 54.1956 16.4661 54.3137C16.4516 54.6062 16.4516 55.4488 16.4516 56.0565C16.0297 56.0483 15.7299 56.0192 15.6115 55.9011C15.5246 55.8139 15.4818 55.6169 15.4956 55.2726C15.5101 54.5834 15.5101 54.43 15.5101 54.3428C15.5189 54.1956 15.4238 54.0794 15.2248 54.0794C15.051 54.0794 14.9414 54.1893 14.9332 54.3055C14.9269 54.519 14.9269 54.7534 14.9187 55.2202C14.9124 55.4697 14.9269 55.6605 14.9622 55.8285C15.0075 56.0256 15.08 56.1809 15.204 56.3035C15.3344 56.445 15.5189 56.5315 15.767 56.584C15.9409 56.613 16.1455 56.6275 16.4453 56.6275C16.4516 57.6294 16.4598 58.5737 16.4598 58.5819C16.4661 58.7418 16.524 58.8081 16.7432 58.8081C16.9623 58.8081 17.0348 58.7209 17.0291 58.5592C17.0291 58.5529 17.0203 57.4032 17.0203 56.289C17.0203 55.1766 17.0348 54.5399 17.0436 54.351C17.0492 54.2038 16.9567 54.0876 16.7577 54.0876ZM20.5167 56.289C20.5167 55.1766 20.5255 54.32 20.5255 54.3137C20.5312 54.152 20.4071 54.0876 20.2478 54.0794C20.0866 54.0794 19.9562 54.1457 19.9562 54.2992C19.9562 54.3055 19.948 55.061 19.948 56.0483L18.8101 56.0919C18.8019 55.0755 18.7584 54.3055 18.7584 54.2992C18.7502 54.1375 18.6199 54.0794 18.4668 54.0876C18.3056 54.0939 18.1816 54.1665 18.1897 54.3283C18.1897 54.3365 18.2332 55.1854 18.2332 56.289C18.2332 57.4032 18.1897 58.5819 18.1897 58.5965C18.1897 58.6754 18.2559 58.8081 18.4813 58.8081C18.7005 58.8081 18.7666 58.6918 18.7666 58.6173C18.7666 58.6028 18.8019 57.6521 18.8101 56.6711L19.948 56.6275C19.948 57.6212 19.9625 58.5883 19.9625 58.5965C19.9625 58.6754 20.0494 58.8163 20.2686 58.8081C20.4878 58.8081 20.5312 58.6691 20.5312 58.5883C20.5312 58.5819 20.5255 57.4096 20.5167 56.289ZM21.9343 54.0876C21.6862 54.1021 21.6635 54.2329 21.6717 54.3718C21.6925 54.6934 21.707 55.5733 21.7152 56.289C21.7152 57.4032 21.6717 58.304 21.6717 58.5074C21.6717 58.5883 21.7007 58.6609 21.7523 58.7209C21.8103 58.7708 21.8827 58.8081 21.9633 58.8081L22.6132 58.8163C23.0515 58.8226 23.459 58.7645 23.7216 58.5011C23.9552 58.2724 24.0566 57.8928 24.0566 57.3805C24.0566 56.9491 23.9779 56.6275 23.7216 56.3698C23.459 56.1001 23.037 55.9965 22.2838 55.9965C22.2838 55.3907 22.2549 54.6144 22.2404 54.3137C22.2322 54.212 22.168 54.0731 21.9343 54.0876ZM22.2549 58.2377C22.2694 57.8928 22.2838 57.2125 22.2838 56.5669C22.8387 56.5606 23.1674 56.6332 23.3286 56.7867C23.3929 56.8537 23.4879 57.0217 23.4879 57.3805C23.4879 57.7165 23.43 57.98 23.3204 58.0899C23.1611 58.2522 22.8242 58.2434 22.2549 58.2377ZM24.8596 58.8081C25.0208 58.8081 25.1449 58.7354 25.1449 58.5737V54.2992C25.1449 54.1375 25.0145 54.0794 24.8533 54.0794C24.7002 54.0794 24.568 54.1375 24.568 54.2992L24.5762 58.5737C24.5762 58.7354 24.7002 58.8081 24.8596 58.8081ZM28.0185 58.2086H28.0128L26.8666 58.2231C26.8811 57.87 26.8956 57.2415 26.8956 56.5751L27.6545 56.5606C27.8075 56.5606 27.8654 56.4279 27.8654 56.2681C27.8591 56.1064 27.8012 55.982 27.64 55.982L26.8956 55.9965C26.8956 55.4198 26.8811 54.9422 26.8666 54.658C27.4435 54.658 27.9114 54.6352 27.9171 54.6352C28.0707 54.6352 28.1287 54.5045 28.1224 54.3428C28.1136 54.1811 28.05 54.0566 27.8944 54.0648C27.8881 54.0648 27.2615 54.0876 26.5669 54.0876C26.4881 54.0876 26.4132 54.1166 26.3641 54.1748C26.3036 54.2329 26.2747 54.3137 26.2828 54.3864C26.2828 54.3946 26.3181 55.1854 26.3263 56.289C26.3263 57.4032 26.2891 58.4929 26.2828 58.5074C26.2828 58.5883 26.3118 58.6609 26.3697 58.7209C26.4277 58.779 26.5026 58.7999 26.6267 58.8081C26.8295 58.8081 28.0185 58.779 28.0185 58.779C28.1803 58.779 28.2609 58.6464 28.2527 58.4866C28.2527 58.3331 28.174 58.2086 28.0185 58.2086ZM31.6623 54.4236C31.6686 54.687 31.7057 55.5215 31.6975 56.289C31.6912 57.4032 31.6623 58.5529 31.6623 58.5592C31.6541 58.7209 31.7284 58.8081 31.9457 58.8081C32.1648 58.8081 32.2228 58.7418 32.231 58.5819C32.231 58.5737 32.3267 56.7665 32.2543 54.658H33.3979C33.3916 55.09 33.3916 55.7331 33.3916 56.1955C33.3771 56.6421 33.4433 58.5592 33.4433 58.5965C33.4433 58.6754 33.5302 58.8163 33.75 58.8081C33.9691 58.8081 34.0126 58.6691 34.0126 58.5883C34.0044 58.2434 33.9754 57.059 33.9691 56.289C33.9609 55.1766 33.9754 54.4236 33.9754 54.3718C33.9691 54.212 33.845 54.0876 33.6832 54.0876H31.9457C31.8071 54.0876 31.6541 54.1665 31.6623 54.4236ZM35.4339 58.8081C35.6531 58.8081 35.711 58.7418 35.7192 58.5819C35.7192 58.5737 35.7564 57.6294 35.7627 56.6275C36.0624 56.6275 36.2677 56.613 36.4416 56.584C36.6897 56.5315 36.8717 56.445 37.0039 56.3035C37.128 56.1809 37.2004 56.0256 37.2439 55.8285C37.281 55.6605 37.2955 55.4697 37.2873 55.2145C37.281 54.9504 37.2231 54.7388 37.1135 54.5626C37.0102 54.4009 36.8654 54.2765 36.6752 54.1956C36.3691 54.0731 36.0051 54.0794 35.6531 54.0876C35.5807 54.0876 35.5083 54.0876 35.4276 54.0876C35.3552 54.0876 35.2746 54.1166 35.223 54.1748C35.1713 54.2329 35.1424 54.3137 35.1424 54.3864C35.1424 54.3946 35.1858 55.1766 35.1858 56.289C35.1858 57.4032 35.1505 58.5529 35.1505 58.5592C35.1424 58.7209 35.2167 58.8081 35.4339 58.8081ZM35.7274 54.658C35.9963 54.6498 36.274 54.6498 36.4497 54.7306C36.5738 54.7824 36.7042 54.8784 36.7124 55.229C36.7268 55.5941 36.6834 55.8076 36.5946 55.9011C36.4787 56.0192 36.1783 56.0483 35.7564 56.0565C35.7564 55.4488 35.7419 54.9504 35.7274 54.658ZM39.3523 58.8599C39.7327 58.8599 40.2359 58.7064 40.4758 57.9446C40.6226 57.4759 40.6452 56.8827 40.6452 56.3117C40.6452 55.6604 40.5709 55.1621 40.4179 54.8033C40.1546 54.1602 39.6955 54.0276 39.3523 54.0276C39.0979 54.0276 38.8706 54.1084 38.6823 54.2701C38.5204 54.4009 38.3819 54.5917 38.2868 54.8323C38.1337 55.2056 38.0613 55.704 38.0613 56.3117C38.0613 56.9055 38.0821 57.5131 38.2351 57.98C38.3239 58.2522 38.4486 58.4575 38.6218 58.6028C38.8208 58.779 39.0689 58.8599 39.3523 58.8599ZM39.3523 54.5999C39.5198 54.5999 39.739 54.6498 39.892 55.0231C40.0104 55.3099 40.0684 55.7413 40.0684 56.3117C40.0684 56.8392 40.0533 57.3742 39.9292 57.7683C39.7825 58.2231 39.557 58.2895 39.3523 58.2895C38.8208 58.2895 38.6363 57.7683 38.6363 56.3117C38.6363 55.7849 38.6967 55.3452 38.8208 55.0521C38.9801 54.6498 39.2075 54.5999 39.3523 54.5999ZM43.9282 59.3494C43.9282 59.5111 44.0523 59.5983 44.2116 59.5983C44.3728 59.5983 44.4969 59.5111 44.4969 59.3494V58.5219C44.4969 58.3621 44.3665 58.2377 44.2053 58.2377H44.1039C44.0957 57.8492 44.0875 57.088 44.0875 56.2972C44.0875 55.1854 44.0957 54.43 44.0957 54.3801C44.0875 54.2183 43.9635 54.0939 43.8041 54.0939H42.1321C41.9936 54.0939 41.8468 54.1748 41.8468 54.43C41.8468 54.6062 41.8922 56.4361 41.8777 57.2933C41.8695 57.8347 41.6938 58.0753 41.5489 58.2377H41.3814C41.2347 58.2377 41.1106 58.3539 41.0961 58.5011V59.3494C41.0961 59.5111 41.2202 59.5983 41.3814 59.5983C41.5408 59.5983 41.6648 59.5111 41.6648 59.3494V58.8081H43.9282V59.3494ZM43.5126 56.2018C43.5037 56.8827 43.5182 57.7538 43.5264 58.2377H42.219C42.3286 58.0842 42.447 57.8201 42.4533 57.2933C42.4678 56.4279 42.4388 55.061 42.4325 54.6643H43.5182C43.5125 55.0957 43.5126 55.7413 43.5126 56.2018ZM47.1822 54.1084C47.0292 54.0648 46.8906 54.0876 46.8471 54.2411C46.8471 54.2474 46.6425 54.965 46.3074 55.9384C46.2042 55.7413 46.0883 55.507 46.0077 55.3017C45.7822 54.7452 45.6638 54.2411 45.6638 54.2329C45.6286 54.0794 45.4736 54.0566 45.3206 54.0876C45.1676 54.123 45.0662 54.2038 45.1033 54.3573C45.1033 54.38 45.2274 54.9132 45.4736 55.5215C45.6575 55.9674 45.9409 56.4652 46.0511 56.6478C45.7532 57.4904 45.4529 58.2813 45.3949 58.4638C45.3351 58.6401 45.4157 58.7418 45.5687 58.7936C45.7299 58.8371 45.8603 58.8371 45.9352 58.6609C45.9989 58.4866 46.4006 57.3805 46.7376 56.4507C47.1532 55.2871 47.3932 54.4382 47.402 54.3946C47.4309 54.2411 47.3352 54.1457 47.1822 54.1084ZM50.3707 58.7999C50.5754 58.7708 50.6043 58.6464 50.5754 58.5219C50.5237 58.2813 50.4078 57.7102 50.0419 56.8827C49.8536 56.4652 49.6773 56.1809 49.5677 56.0192C49.6716 55.9175 49.7642 55.8076 49.8455 55.6895C50.2756 55.1039 50.4595 54.4382 50.4658 54.4091C50.5029 54.2556 50.3852 54.152 50.2321 54.1084C50.0791 54.0731 49.9487 54.1166 49.9034 54.2701C49.9034 54.2765 49.7441 54.8551 49.3857 55.3535C49.2182 55.5733 48.9909 55.7931 48.7944 55.9611C48.7881 55.0174 48.7591 54.3137 48.7509 54.3055C48.7427 54.1457 48.6124 54.0794 48.4512 54.0876C48.2981 54.0939 48.1734 54.1748 48.1823 54.3365C48.1823 54.3428 48.2257 55.1854 48.2257 56.289C48.2257 57.4032 48.1823 58.5674 48.1823 58.5737C48.1823 58.6546 48.2024 58.8081 48.4656 58.8081C48.7364 58.8081 48.7509 58.6754 48.7591 58.5965C48.7591 58.5883 48.7944 57.6666 48.7944 56.7002C48.8832 56.6421 49.0053 56.5378 49.1458 56.4216C49.239 56.5669 49.3712 56.7956 49.5161 57.1171C49.8599 57.8846 49.9632 58.4493 50.0212 58.6401C50.0564 58.779 50.1597 58.8308 50.3707 58.7999ZM53.8073 54.3365C53.7928 54.1748 53.7286 54.0566 53.5755 54.0731C53.5674 54.0731 53.2027 54.1084 52.4936 54.1166C51.7713 54.123 51.6617 54.1166 51.4425 54.1166C51.2316 54.1166 51.2108 54.2556 51.2108 54.4091C51.2108 54.5689 51.2832 54.6934 51.4425 54.6934C51.7568 54.6934 51.9759 54.6934 52.2392 54.6934C52.231 55.0029 52.231 55.5588 52.231 56.289C52.231 57.4096 52.2474 58.5819 52.2474 58.5883C52.2474 58.6691 52.3053 58.8081 52.5308 58.8081C52.7644 58.8081 52.8161 58.6609 52.8161 58.5883C52.8161 58.5737 52.8079 57.4096 52.8079 56.289C52.8016 55.5588 52.8079 54.9858 52.8079 54.687C53.3413 54.6725 53.6102 54.6498 53.6253 54.6498C53.7865 54.6352 53.8237 54.49 53.8073 54.3365ZM54.8892 54.0876C54.6411 54.1021 54.6184 54.2329 54.6266 54.3718C54.6474 54.6934 54.6619 55.5733 54.6701 56.289C54.6701 57.4032 54.6266 58.304 54.6266 58.5074C54.6266 58.5883 54.6556 58.6609 54.7072 58.7209C54.7652 58.7708 54.8376 58.8081 54.9182 58.8081L55.5681 58.8163C56.0064 58.8226 56.4139 58.7645 56.6765 58.5011C56.9101 58.2724 57.0115 57.8928 57.0115 57.3805C57.0115 56.9491 56.9334 56.6275 56.6765 56.3698C56.4139 56.1001 55.9919 55.9965 55.2388 55.9965C55.2388 55.3907 55.2098 54.6144 55.1953 54.3137C55.1871 54.212 55.1229 54.0731 54.8892 54.0876ZM55.2098 58.2377C55.2243 57.8928 55.2388 57.2125 55.2388 56.5669C55.7936 56.5606 56.1223 56.6332 56.2835 56.7867C56.3478 56.8537 56.4429 57.0217 56.4429 57.3805C56.4429 57.7165 56.3849 57.98 56.2753 58.0899C56.116 58.2522 55.7791 58.2434 55.2098 58.2377ZM57.8145 58.8081C57.9757 58.8081 58.0998 58.7354 58.0998 58.5737V54.2992C58.0998 54.1375 57.9694 54.0794 57.8082 54.0794C57.6552 54.0794 57.5229 54.1375 57.5229 54.2992L57.5311 58.5737C57.5311 58.7354 57.6552 58.8081 57.8145 58.8081ZM62.8935 58.8599C63.347 58.8599 63.6902 58.6754 63.9156 58.304C64.0025 58.1707 63.9238 58.0463 63.7916 57.9654C63.653 57.8783 63.5145 57.87 63.4276 58.0027C63.3098 58.1998 63.1505 58.2895 62.8935 58.2895C62.362 58.2895 62.1781 57.7683 62.1781 56.3117C62.1781 55.7849 62.2379 55.3452 62.362 55.0521C62.5213 54.6498 62.7487 54.5999 62.8935 54.5999C63.1215 54.5999 63.2084 54.6643 63.3243 54.8178C63.4276 54.9422 63.5579 54.9214 63.682 54.8178C63.8061 54.7224 63.8785 54.5834 63.7771 54.459C63.6612 54.3137 63.5516 54.2183 63.4194 54.1457C63.2745 54.0648 63.0988 54.0276 62.8935 54.0276C62.6391 54.0276 62.4118 54.1084 62.2235 54.2701C62.0622 54.4009 61.9237 54.5917 61.8286 54.8323C61.6756 55.2056 61.6031 55.704 61.6031 56.3117C61.6031 56.9055 61.6239 57.5131 61.777 57.98C61.8658 58.2522 61.9898 58.4575 62.1636 58.6028C62.362 58.779 62.6101 58.8599 62.8935 58.8599ZM65.8711 58.8599C66.2514 58.8599 66.7546 58.7064 66.9946 57.9446C67.1413 57.4759 67.164 56.8827 67.164 56.3117C67.164 55.6604 67.0896 55.1621 66.9366 54.8033C66.674 54.1602 66.2143 54.0276 65.8711 54.0276C65.6166 54.0276 65.3893 54.1084 65.201 54.2701C65.0398 54.4009 64.9012 54.5917 64.8055 54.8323C64.6525 55.2056 64.58 55.704 64.58 56.3117C64.58 56.9055 64.6008 57.5131 64.7539 57.98C64.8433 58.2522 64.9673 58.4575 65.1405 58.6028C65.3395 58.779 65.5877 58.8599 65.8711 58.8599ZM65.8711 54.5999C66.0386 54.5999 66.2577 54.6498 66.4108 55.0231C66.5292 55.3099 66.5871 55.7413 66.5871 56.3117C66.5871 56.8392 66.5726 57.3742 66.4479 57.7683C66.3012 58.2231 66.0757 58.2895 65.8711 58.2895C65.3395 58.2895 65.1556 57.7683 65.1556 56.3117C65.1556 55.7849 65.2155 55.3452 65.3395 55.0521C65.4989 54.6498 65.7262 54.5999 65.8711 54.5999ZM71.6145 58.8163C71.7757 58.8163 71.9206 58.8081 72.0591 58.7936C72.3507 58.7563 72.5642 58.6609 72.7235 58.5011C72.9572 58.2724 73.0585 57.9301 73.0585 57.4178C73.0585 56.9863 72.9509 56.6623 72.7235 56.445C72.6712 56.3926 72.6076 56.3408 72.5327 56.3035C72.6511 56.1809 72.7317 56.0256 72.7751 55.8285C72.8104 55.6605 72.8186 55.4697 72.8104 55.2145C72.8041 54.9504 72.7525 54.7388 72.6429 54.5626C72.5415 54.4009 72.3878 54.2765 72.1977 54.1956C71.8916 54.0731 71.5339 54.0794 71.1844 54.0876C71.1038 54.0876 71.0313 54.0876 70.9564 54.0876C70.8783 54.0876 70.8034 54.1166 70.7536 54.1748C70.6938 54.2329 70.6648 54.3137 70.673 54.3864C70.673 54.3946 70.7083 55.1766 70.7165 56.289C70.7165 57.4032 70.6793 58.4929 70.673 58.5074C70.673 58.5883 70.702 58.6609 70.7536 58.7209C70.8115 58.7708 70.884 58.8081 70.9652 58.8081C71.0748 58.8081 71.1844 58.8081 71.294 58.8081C71.4035 58.8163 71.5131 58.8163 71.6145 58.8163ZM71.2568 58.2377C71.2713 57.8928 71.2858 57.2851 71.2858 56.6421C71.84 56.6332 72.1687 56.7084 72.3305 56.8619C72.3941 56.9263 72.4892 57.059 72.4892 57.4178C72.4892 57.7538 72.4313 57.98 72.3217 58.0899C72.1624 58.2522 71.8255 58.2434 71.2568 58.2377ZM71.2568 54.658C71.5276 54.6498 71.7965 54.6498 71.9785 54.7306C72.1026 54.7824 72.2266 54.8784 72.2411 55.229C72.2493 55.5941 72.2121 55.8076 72.1252 55.9011C72.0075 56.0192 71.7096 56.0483 71.2858 56.0565C71.2858 55.4488 71.2713 54.9504 71.2568 54.658ZM75.1172 58.8599C75.57 58.8599 75.9133 58.6754 76.1387 58.304C76.2256 58.1707 76.1475 58.0463 76.0147 57.9654C75.8761 57.8783 75.7376 57.87 75.6507 58.0027C75.5329 58.1998 75.3736 58.2895 75.1172 58.2895C74.5857 58.2895 74.4012 57.7683 74.4012 56.3117C74.4012 55.7849 74.461 55.3452 74.5857 55.0521C74.7444 54.6498 74.9724 54.5999 75.1172 54.5999C75.3446 54.5999 75.4315 54.6643 75.5474 54.8178C75.6507 54.9422 75.781 54.9214 75.9051 54.8178C76.0291 54.7224 76.1016 54.5834 76.0002 54.459C75.8843 54.3137 75.7747 54.2183 75.6425 54.1457C75.4976 54.0648 75.3219 54.0276 75.1172 54.0276C74.8628 54.0276 74.6348 54.1084 74.4465 54.2701C74.2853 54.4009 74.1468 54.5917 74.0517 54.8323C73.8987 55.2056 73.8262 55.704 73.8262 56.3117C73.8262 56.9055 73.847 57.5131 74 57.98C74.0888 58.2522 74.2129 58.4575 74.3867 58.6028C74.5857 58.779 74.8339 58.8599 75.1172 58.8599ZM78.802 58.2086H78.7957L77.6495 58.2231C77.664 57.87 77.6785 57.2415 77.6785 56.5751L78.4374 56.5606C78.5904 56.5606 78.6483 56.4279 78.6483 56.2681C78.6427 56.1064 78.5847 55.982 78.4229 55.982L77.6785 55.9965C77.6785 55.4198 77.664 54.9422 77.6495 54.658C78.2264 54.658 78.6943 54.6352 78.7006 54.6352C78.8536 54.6352 78.9116 54.5045 78.9053 54.3428C78.8971 54.1811 78.8329 54.0566 78.6773 54.0648C78.6716 54.0648 78.0444 54.0876 77.3498 54.0876C77.271 54.0876 77.1961 54.1166 77.147 54.1748C77.0865 54.2329 77.0575 54.3137 77.0664 54.3864C77.0664 54.3946 77.101 55.1854 77.1098 56.289C77.1098 57.4032 77.072 58.4929 77.0664 58.5074C77.0664 58.5883 77.0953 58.6609 77.1533 58.7209C77.2112 58.779 77.2855 58.7999 77.4096 58.8081C77.6124 58.8081 78.802 58.779 78.802 58.779C78.9632 58.779 79.0438 58.6464 79.0356 58.4866C79.0356 58.3331 78.9569 58.2086 78.802 58.2086ZM82.1158 54.0794C81.8967 54.0731 81.8324 54.1166 81.7726 54.2619C81.7228 54.3864 81.27 55.6087 80.8745 56.4734C80.7675 56.7229 80.6434 56.9863 80.5194 57.2352C80.525 56.9781 80.525 56.6913 80.525 56.3989C80.525 55.2726 80.4961 54.291 80.4961 54.2847C80.4879 54.2038 80.4589 54.0939 80.2045 54.0939C79.9419 54.0939 79.9192 54.2183 79.9192 54.2992C79.9192 54.3137 79.9564 55.2871 79.9482 56.3989C79.9482 57.5131 79.9192 58.3766 79.9192 58.5529C79.9192 58.6836 79.9853 58.7563 80.1176 58.7936C80.2479 58.8226 80.3802 58.7935 80.4381 58.6691C80.4444 58.6609 81.0074 57.5776 81.4004 56.7147C81.51 56.4734 81.6277 56.2018 81.7373 55.9321C81.7373 56.2826 81.7291 56.6478 81.7291 56.9781C81.7291 57.8846 81.7663 58.5674 81.7663 58.5965C81.7726 58.75 81.9111 58.8163 82.0642 58.8081C82.2254 58.7999 82.3501 58.7209 82.3356 58.5674C82.3356 58.5592 82.3066 57.87 82.3066 56.9781C82.3066 55.8657 82.3438 54.4818 82.3438 54.3365C82.3438 54.1956 82.3268 54.0876 82.1158 54.0794ZM81.0943 53.7926C81.4086 53.7869 81.6939 53.7206 81.8967 53.5671C82.0868 53.4363 82.2115 53.2449 82.3066 53.0832C82.3872 52.9443 82.3123 52.7844 82.1819 52.7036C82.0434 52.6309 81.8904 52.66 81.8097 52.799C81.6567 53.0687 81.5389 53.1931 81.1378 53.2159C80.8166 53.2304 80.6724 53.0769 80.5338 52.8053C80.4589 52.6663 80.2996 52.6309 80.1528 52.7036C80.0143 52.7762 79.9482 52.9297 80.0225 53.0687C80.1818 53.3839 80.4734 53.7926 81.0943 53.7926ZM86.999 58.8599C87.3857 58.8599 87.7062 58.7354 87.9336 58.4929C88.0639 58.3539 88.1678 58.1707 88.2314 57.9509C88.2919 57.7456 88.3127 57.5049 88.3064 57.2415C88.2837 56.7728 88.1074 56.4216 87.7805 56.1809C87.9191 56.0628 88.0205 55.9011 88.0784 55.7268C88.1452 55.5505 88.1735 55.3389 88.1597 55.1103C88.1364 54.6788 87.9487 54.4445 87.7868 54.32C87.5966 54.1665 87.3422 54.0939 87.0362 54.0876C86.7301 54.0876 86.4587 54.1811 86.254 54.3718C86.0575 54.5481 85.9334 54.7887 85.8963 55.0755C85.8755 55.2347 85.9851 55.3244 86.1381 55.3389C86.2974 55.3598 86.4442 55.3099 86.4675 55.1482C86.5021 54.8405 86.7074 54.6643 87.028 54.6643C87.2037 54.6643 87.3485 54.7016 87.4373 54.7742C87.5242 54.8469 87.5759 54.965 87.5903 55.1418C87.6048 55.4116 87.5387 55.6169 87.4083 55.7413C87.21 55.9384 86.9637 55.9321 86.7011 55.9321C86.5538 55.9321 86.482 56.0774 86.482 56.2245C86.482 56.3698 86.5456 56.5031 86.7074 56.5031C87.0135 56.5031 87.2616 56.4943 87.489 56.6768C87.6338 56.8101 87.7144 57.0009 87.7289 57.2706C87.7434 57.6439 87.671 57.9364 87.5179 58.0981C87.4002 58.2231 87.2263 58.2895 86.999 58.2895C86.6117 58.2895 86.407 57.9364 86.3862 57.6957C86.3781 57.534 86.2332 57.4822 86.0802 57.4986C85.919 57.5131 85.8031 57.5858 85.8176 57.7456C85.8383 58.0172 85.9706 58.2958 86.1589 58.5011C86.3862 58.7354 86.6785 58.8599 86.999 58.8599ZM91.4949 58.5529C91.4949 58.5447 91.3702 57.7683 91.1221 56.6042C90.9482 55.7931 90.663 54.6435 90.5471 54.2701C90.4955 54.1021 90.3651 54.0794 90.2473 54.0876C90.1377 54.1021 90.0363 54.1457 89.9992 54.2556C89.9992 54.2619 89.6062 55.4053 89.3285 56.517C89.0143 57.7766 88.8675 58.5156 88.8675 58.5529C88.8385 58.7064 88.9192 58.7853 89.0722 58.8163C89.2334 58.8453 89.4009 58.8081 89.4299 58.6464C89.4299 58.6401 89.5458 58.0608 89.7876 57.0508L90.6195 57.0154C90.8242 58.0172 90.9111 58.5219 90.9256 58.6173C90.9482 58.7563 91.1158 58.8517 91.2688 58.8308C91.4306 58.8163 91.5232 58.7127 91.4949 58.5529ZM90.2473 55.3598C90.3197 55.6459 90.4085 56.011 90.5036 56.445L89.9324 56.4652C90.0364 56.071 90.1459 55.6895 90.2473 55.3598ZM94.2255 54.658C94.3849 54.658 94.4737 54.5335 94.4737 54.3718C94.4737 54.212 94.3849 54.0876 94.2255 54.0876H92.67C92.5913 54.0876 92.517 54.1166 92.4672 54.1748C92.4074 54.2329 92.3784 54.3137 92.3866 54.3864C92.3866 54.3946 92.4219 55.1766 92.4301 56.289C92.4301 57.4032 92.3929 58.4929 92.3866 58.5074C92.3866 58.5883 92.4156 58.6609 92.4672 58.7209C92.5252 58.7708 92.5976 58.8081 92.6782 58.8081L93.3275 58.8163C93.7664 58.8226 94.1739 58.7645 94.4365 58.5011C94.6702 58.2724 94.7715 57.8928 94.7715 57.3805C94.7715 56.9491 94.6928 56.6275 94.4365 56.3698C94.1739 56.1001 93.752 55.9965 92.9988 55.9965C92.9988 55.3907 92.9843 54.9504 92.9698 54.658H94.2255ZM92.9698 58.2377C92.9843 57.8928 92.9988 57.2125 92.9988 56.5669C93.5529 56.5606 93.8823 56.6332 94.0435 56.7867C94.1078 56.8537 94.2029 57.0217 94.2029 57.3805C94.2029 57.7165 94.1449 57.98 94.0354 58.0899C93.876 58.2522 93.5391 58.2434 92.9698 58.2377ZM96.8302 58.8599C97.2113 58.8599 97.7138 58.7064 97.9537 57.9446C98.1005 57.4759 98.1231 56.8827 98.1231 56.3117C98.1231 55.6604 98.0488 55.1621 97.8958 54.8033C97.6332 54.1602 97.1735 54.0276 96.8302 54.0276C96.5758 54.0276 96.3485 54.1084 96.1602 54.2701C95.999 54.4009 95.8604 54.5917 95.7647 54.8323C95.6116 55.2056 95.5399 55.704 95.5399 56.3117C95.5399 56.9055 95.56 57.5131 95.713 57.98C95.8025 58.2522 95.9265 58.4575 96.1003 58.6028C96.2987 58.779 96.5469 58.8599 96.8302 58.8599ZM96.8302 54.5999C96.9978 54.5999 97.2169 54.6498 97.3706 55.0231C97.4883 55.3099 97.5463 55.7413 97.5463 56.3117C97.5463 56.8392 97.5318 57.3742 97.4077 57.7683C97.2604 58.2231 97.0349 58.2895 96.8302 58.2895C96.2987 58.2895 96.1148 57.7683 96.1148 56.3117C96.1148 55.7849 96.1747 55.3452 96.2987 55.0521C96.4581 54.6498 96.6854 54.5999 96.8302 54.5999ZM101.23 54.3365C101.215 54.1748 101.151 54.0566 100.998 54.0731C100.99 54.0731 100.626 54.1084 99.9161 54.1166C99.1944 54.123 99.0848 54.1166 98.865 54.1166C98.654 54.1166 98.6333 54.2556 98.6333 54.4091C98.6333 54.5689 98.7057 54.6934 98.865 54.6934C99.1799 54.6934 99.3991 54.6934 99.6617 54.6934C99.6535 55.0029 99.6535 55.5588 99.6535 56.289C99.6535 57.4096 99.6699 58.5819 99.6699 58.5883C99.6699 58.6691 99.7278 58.8081 99.9532 58.8081C100.187 58.8081 100.239 58.6609 100.239 58.5883C100.239 58.5737 100.23 57.4096 100.23 56.289C100.224 55.5588 100.23 54.9858 100.23 54.687C100.764 54.6725 101.033 54.6498 101.048 54.6498C101.209 54.6352 101.246 54.49 101.23 54.3365ZM103.042 58.8599C103.423 58.8599 103.925 58.7064 104.165 57.9446C104.312 57.4759 104.335 56.8827 104.335 56.3117C104.335 55.6604 104.26 55.1621 104.107 54.8033C103.845 54.1602 103.385 54.0276 103.042 54.0276C102.787 54.0276 102.56 54.1084 102.372 54.2701C102.21 54.4009 102.072 54.5917 101.977 54.8323C101.823 55.2056 101.751 55.704 101.751 56.3117C101.751 56.9055 101.771 57.5131 101.924 57.98C102.014 58.2522 102.138 58.4575 102.312 58.6028C102.51 58.779 102.758 58.8599 103.042 58.8599ZM103.042 54.5999C103.209 54.5999 103.428 54.6498 103.582 55.0231C103.7 55.3099 103.758 55.7413 103.758 56.3117C103.758 56.8392 103.743 57.3742 103.619 57.7683C103.472 58.2231 103.246 58.2895 103.042 58.2895C102.51 58.2895 102.326 57.7683 102.326 56.3117C102.326 55.7849 102.386 55.3452 102.51 55.0521C102.669 54.6498 102.897 54.5999 103.042 54.5999ZM107.515 54.0794C107.295 54.0731 107.231 54.1166 107.171 54.2619C107.121 54.3864 106.668 55.6087 106.274 56.4734C106.166 56.7229 106.042 56.9863 105.918 57.2352C105.924 56.9781 105.924 56.6913 105.924 56.3989C105.924 55.2726 105.895 54.291 105.895 54.2847C105.887 54.2038 105.857 54.0939 105.603 54.0939C105.34 54.0939 105.318 54.2183 105.318 54.2992C105.318 54.3137 105.355 55.2871 105.347 56.3989C105.347 57.5131 105.318 58.3766 105.318 58.5529C105.318 58.6836 105.384 58.7563 105.517 58.7936C105.646 58.8226 105.779 58.7935 105.837 58.6691C105.843 58.6609 106.406 57.5776 106.799 56.7147C106.908 56.4734 107.026 56.2018 107.136 55.9321C107.136 56.2826 107.128 56.6478 107.128 56.9781C107.128 57.8846 107.165 58.5674 107.165 58.5965C107.171 58.75 107.31 58.8163 107.463 58.8081C107.624 58.7999 107.748 58.7209 107.734 58.5674C107.734 58.5592 107.705 57.87 107.705 56.9781C107.705 55.8657 107.742 54.4818 107.742 54.3365C107.742 54.1956 107.726 54.0876 107.515 54.0794ZM106.493 53.7926C106.807 53.7869 107.093 53.7206 107.295 53.5671C107.486 53.4363 107.61 53.2449 107.705 53.0832C107.786 52.9443 107.711 52.7844 107.581 52.7036C107.442 52.6309 107.289 52.66 107.208 52.799C107.055 53.0687 106.937 53.1931 106.536 53.2159C106.216 53.2304 106.071 53.0769 105.932 52.8053C105.857 52.6663 105.699 52.6309 105.551 52.7036C105.413 52.7762 105.347 52.9297 105.421 53.0687C105.58 53.3839 105.872 53.7926 106.493 53.7926Z" fill="#7D4D38"/>
</svg>
