<svg width="9" height="17" viewBox="0 0 9 17" fill="none" xmlns="http://www.w3.org/2000/svg">
<path d="M0.305207 9.0882H2.04761V16.3352C2.04761 16.4783 2.16236 16.5942 2.30398 16.5942H5.25828C5.39991 16.5942 5.51466 16.4783 5.51466 16.3352V9.12234H7.5177C7.64794 9.12234 7.75751 9.0236 7.77238 8.8929L8.0766 6.22492C8.08496 6.15152 8.06194 6.07801 8.01333 6.02294C7.96467 5.96782 7.89503 5.93628 7.82197 5.93628H5.51476V4.26386C5.51476 3.75971 5.78345 3.50406 6.31344 3.50406C6.38896 3.50406 7.82197 3.50406 7.82197 3.50406C7.96359 3.50406 8.07834 3.38807 8.07834 3.24504V0.79609C8.07834 0.653009 7.96359 0.537073 7.82197 0.537073H5.74299C5.72833 0.536348 5.69577 0.535156 5.64777 0.535156C5.28705 0.535156 4.0332 0.606697 3.04276 1.52724C1.94536 2.54735 2.09791 3.76877 2.13436 3.98054V5.93622H0.305207C0.163583 5.93622 0.0488281 6.05216 0.0488281 6.19524V8.82913C0.0488281 8.97221 0.163583 9.0882 0.305207 9.0882Z" fill="white"/>
</svg>
