<svg width="9" height="17" viewBox="0 0 9 17" fill="none" xmlns="http://www.w3.org/2000/svg">
<path d="M0.30423 9.0882H2.04663V16.3352C2.04663 16.4783 2.16138 16.5942 2.30301 16.5942H5.25731C5.39893 16.5942 5.51369 16.4783 5.51369 16.3352V9.12234H7.51672C7.64696 9.12234 7.75654 9.0236 7.77141 8.8929L8.07562 6.22492C8.08398 6.15152 8.06096 6.07801 8.01235 6.02294C7.96369 5.96782 7.89406 5.93628 7.82099 5.93628H5.51379V4.26386C5.51379 3.75971 5.78247 3.50406 6.31246 3.50406C6.38799 3.50406 7.82099 3.50406 7.82099 3.50406C7.96261 3.50406 8.07737 3.38807 8.07737 3.24504V0.79609C8.07737 0.653009 7.96261 0.537073 7.82099 0.537073H5.74202C5.72735 0.536348 5.69479 0.535156 5.6468 0.535156C5.28607 0.535156 4.03223 0.606697 3.04179 1.52724C1.94438 2.54735 2.09693 3.76877 2.13339 3.98054V5.93622H0.30423C0.162607 5.93622 0.0478516 6.05216 0.0478516 6.19524V8.82913C0.0478516 8.97221 0.162607 9.0882 0.30423 9.0882Z" fill="#804E3D"/>
</svg>
