<svg width="16" height="15" viewBox="0 0 16 15" fill="none" xmlns="http://www.w3.org/2000/svg">
<path d="M15.2401 10.312C15.206 11.0853 15.081 11.617 14.9018 12.0776C14.717 12.5666 14.4326 13.0044 14.0601 13.3683C13.6961 13.7379 13.2553 14.0251 12.7719 14.207C12.3085 14.3861 11.7795 14.5112 11.0061 14.5453C10.2269 14.5823 9.97951 14.5908 8.00322 14.5908C6.02692 14.5908 5.77955 14.5823 5.00323 14.5482C4.2298 14.5141 3.69807 14.3889 3.23743 14.2099C2.74824 14.0251 2.31038 13.7408 1.94638 13.3683C1.57671 13.0044 1.28957 12.5637 1.10752 12.0804C0.928349 11.617 0.803275 11.0882 0.769175 10.3149C0.732186 9.53587 0.723633 9.28854 0.723633 7.31263C0.723633 5.33671 0.732186 5.08939 0.766287 4.31322C0.800387 3.53993 0.925572 3.0083 1.10474 2.54764C1.28957 2.05866 1.57671 1.62088 1.94638 1.25694C2.31038 0.887347 2.75113 0.600156 3.23454 0.418245C3.69807 0.239111 4.22691 0.114062 5.00045 0.0799675C5.77666 0.0457621 6.02415 0.0373211 8.00044 0.0373211C9.97673 0.0373211 10.2241 0.0457621 11.0004 0.0799675C11.7739 0.114062 12.3056 0.239111 12.7662 0.418245C13.7445 0.796392 14.5179 1.56968 14.8961 2.54764C15.0752 3.01108 15.2004 3.53993 15.2345 4.31322C15.2686 5.08939 15.2771 5.33671 15.2771 7.31263C15.2771 9.28854 15.2742 9.53587 15.2401 10.312ZM13.9293 4.37008C13.898 3.65932 13.7786 3.27551 13.6791 3.01963C13.4345 2.38561 12.9312 1.88241 12.297 1.63787C12.0411 1.53836 11.6544 1.41897 10.9463 1.38777C10.1786 1.35356 9.9483 1.34512 8.0061 1.34512C6.06391 1.34512 5.83076 1.35356 5.06577 1.38777C4.35487 1.41897 3.97099 1.53836 3.71506 1.63787C3.39949 1.75448 3.11225 1.93927 2.87909 2.18093C2.63739 2.41693 2.45256 2.70123 2.33592 3.01674C2.2364 3.27262 2.11699 3.65932 2.08578 4.36719C2.05157 5.13481 2.04312 5.36514 2.04312 7.30696C2.04312 9.24878 2.05157 9.48189 2.08578 10.2466C2.11699 10.9574 2.2364 11.3412 2.33592 11.5971C2.45256 11.9127 2.63739 12.1998 2.88198 12.433C3.11791 12.6747 3.40227 12.8595 3.71795 12.9759C3.97387 13.0755 4.36065 13.1948 5.06866 13.2262C5.83642 13.2603 6.0668 13.2688 8.00888 13.2688C9.95396 13.2688 10.1842 13.2603 10.9492 13.2262C11.6601 13.1948 12.044 13.0755 12.2999 12.9759C12.6155 12.8595 12.9027 12.6747 13.1359 12.433C13.3776 12.197 13.5624 11.9127 13.6791 11.5971C13.7786 11.3412 13.898 10.9546 13.9293 10.2466C13.9634 9.479 13.972 9.24878 13.972 7.30696C13.972 5.36514 13.9634 5.1377 13.9293 4.37008Z" fill="#804E3D"/>
<path d="M8.00322 11.0512C5.93884 11.0512 4.2639 9.37672 4.2639 7.31263C4.2639 5.24853 5.93884 3.57402 8.00322 3.57402C10.0677 3.57402 11.7425 5.24853 11.7425 7.31263C11.7425 9.37672 10.0677 11.0512 8.00322 11.0512ZM8.00322 4.88749C6.66395 4.88749 5.57761 5.97351 5.57761 7.31263C5.57761 8.65175 6.66395 9.73777 8.00322 9.73777C9.34259 9.73777 10.4288 8.65175 10.4288 7.31263C10.4288 5.97351 9.34259 4.88749 8.00322 4.88749Z" fill="#804E3D"/>
<path d="M12.7634 11.199C12.7634 10.7171 12.3726 10.3263 11.8904 10.3263C11.4083 10.3263 11.0174 10.7171 11.0174 11.199C11.0174 11.6811 11.4083 12.0718 11.8904 12.0718C12.3726 12.0718 12.7634 11.6811 12.7634 11.199Z" fill="#804E3D"/>
</svg>
