<svg width="16" height="15" viewBox="0 0 16 15" fill="none" xmlns="http://www.w3.org/2000/svg">
<path d="M15.2392 10.3111C15.2051 11.0843 15.08 11.616 14.9008 12.0766C14.716 12.5656 14.4316 13.0034 14.0591 13.3673C13.6951 13.7369 13.2543 14.0241 12.7709 14.206C12.3075 14.3852 11.7785 14.5102 11.0051 14.5443C10.2259 14.5813 9.97853 14.5898 8.00224 14.5898C6.02595 14.5898 5.77858 14.5813 5.00225 14.5472C4.22882 14.5131 3.69709 14.3879 3.23645 14.2089C2.74727 14.0241 2.3094 13.7398 1.9454 13.3673C1.57573 13.0034 1.2886 12.5627 1.10654 12.0794C0.927372 11.616 0.802299 11.0872 0.768198 10.3139C0.731209 9.53489 0.722656 9.28757 0.722656 7.31165C0.722656 5.33574 0.731209 5.08841 0.76531 4.31224C0.799411 3.53895 0.924595 3.00733 1.10376 2.54666C1.2886 2.05768 1.57573 1.6199 1.9454 1.25597C2.3094 0.886371 2.75016 0.599179 3.23357 0.417269C3.69709 0.238134 4.22593 0.113086 4.99948 0.0789909C5.77569 0.0447855 6.02317 0.0363445 7.99946 0.0363445C9.97575 0.0363445 10.2231 0.0447855 10.9994 0.0789909C11.7729 0.113086 12.3046 0.238134 12.7652 0.417269C13.7435 0.795416 14.5169 1.5687 14.8952 2.54666C15.0742 3.0101 15.1994 3.53895 15.2335 4.31224C15.2676 5.08841 15.2762 5.33574 15.2762 7.31165C15.2762 9.28757 15.2733 9.53489 15.2392 10.3111ZM13.9283 4.3691C13.897 3.65834 13.7776 3.27453 13.6781 3.01865C13.4335 2.38463 12.9302 1.88144 12.2961 1.63689C12.0401 1.53738 11.6535 1.418 10.9454 1.38679C10.1776 1.35259 9.94732 1.34415 8.00513 1.34415C6.06293 1.34415 5.82978 1.35259 5.06479 1.38679C4.35389 1.418 3.97001 1.53738 3.71409 1.63689C3.39852 1.7535 3.11127 1.9383 2.87812 2.17996C2.63641 2.41595 2.45158 2.70026 2.33495 3.01577C2.23542 3.27164 2.11601 3.65834 2.0848 4.36621C2.05059 5.13383 2.04215 5.36417 2.04215 7.30599C2.04215 9.24781 2.05059 9.48092 2.0848 10.2456C2.11601 10.9564 2.23542 11.3402 2.33495 11.5961C2.45158 11.9117 2.63641 12.1988 2.88101 12.432C3.11693 12.6737 3.40129 12.8585 3.71698 12.975C3.9729 13.0745 4.35967 13.1939 5.06768 13.2252C5.83545 13.2593 6.06582 13.2678 8.0079 13.2678C9.95298 13.2678 10.1832 13.2593 10.9482 13.2252C11.6591 13.1939 12.043 13.0745 12.2989 12.975C12.6145 12.8585 12.9018 12.6737 13.1349 12.432C13.3766 12.196 13.5615 11.9117 13.6781 11.5961C13.7776 11.3402 13.897 10.9536 13.9283 10.2456C13.9624 9.47803 13.971 9.24781 13.971 7.30599C13.971 5.36417 13.9624 5.13672 13.9283 4.3691Z" fill="white"/>
<path d="M8.00224 11.0503C5.93786 11.0503 4.26292 9.37575 4.26292 7.31165C4.26292 5.24756 5.93786 3.57305 8.00224 3.57305C10.0667 3.57305 11.7416 5.24756 11.7416 7.31165C11.7416 9.37575 10.0667 11.0503 8.00224 11.0503ZM8.00224 4.88651C6.66298 4.88651 5.57664 5.97253 5.57664 7.31165C5.57664 8.65077 6.66298 9.73679 8.00224 9.73679C9.34161 9.73679 10.4278 8.65077 10.4278 7.31165C10.4278 5.97253 9.34161 4.88651 8.00224 4.88651Z" fill="white"/>
<path d="M12.7625 11.1981C12.7625 10.7161 12.3716 10.3253 11.8894 10.3253C11.4073 10.3253 11.0164 10.7161 11.0164 11.1981C11.0164 11.6802 11.4073 12.0709 11.8894 12.0709C12.3716 12.0709 12.7625 11.6802 12.7625 11.1981Z" fill="white"/>
</svg>
