<svg width="13" height="16" viewBox="0 0 13 16" fill="none" xmlns="http://www.w3.org/2000/svg">
<path d="M12.3348 6.54183C12.3348 5.84507 12.3997 5.09669 12.3348 4.38703C12.2699 3.67736 12.0621 3.01931 11.5298 2.47738L9.76395 0.761278C9.25758 0.245157 8.56943 0 7.85531 0H0.895895C0.454439 0 0 0.296769 0 0.735472V13.1353C0.519359 12.7224 2.15534 11.7676 2.33712 11.6514L2.40204 11.6127C2.76559 10.9676 3.16809 10.2192 3.58358 9.3934C4.20681 8.15471 4.68722 6.92892 5.03779 5.76765C4.79109 4.94186 4.63528 4.14187 4.59633 3.38059V3.27737C4.55738 2.73544 4.50544 1.81933 4.97287 1.47094C5.11569 1.36772 5.28448 1.3032 5.45327 1.3032C5.54416 1.3032 5.63505 1.31611 5.71295 1.35482C6.02457 1.45804 6.21933 1.78062 6.27126 2.29674C6.3232 2.5806 6.29723 2.86447 6.27126 3.09672C6.21933 3.67736 6.0765 4.78702 5.84279 5.75475C5.84279 5.78055 5.86876 5.83216 5.88174 5.87087C5.89473 5.89668 5.89473 5.90958 5.90771 5.93539C6.49199 7.62568 7.54369 8.89018 9.08879 9.78049C9.67307 9.71597 10.2314 9.67726 10.7118 9.67726C11.1403 9.67726 11.7116 9.69017 12.2309 9.8192C12.2569 9.83223 12.3218 9.83223 12.3218 9.845C12.3348 8.74825 12.3348 7.63859 12.3348 6.54183Z" fill="#613A2D"/>
<path d="M4.24576 10.6837C5.20658 10.2579 6.21933 9.97403 7.20611 9.8321C7.34893 9.81907 7.40087 9.63856 7.297 9.53533C6.58288 8.89018 6.06352 8.116 5.71295 7.41924C5.64803 7.29021 5.45327 7.30311 5.40134 7.44504C5.14166 8.20619 4.79109 9.00631 4.33665 9.87081C4.23278 10.0644 4.12891 10.2579 4.02503 10.4514C3.94713 10.5934 4.10294 10.7482 4.24576 10.6837Z" fill="#613A2D"/>
<path d="M2.73962 12.6579C2.70067 12.7224 2.6747 12.7612 2.64873 12.7999C2.428 13.1483 2.22026 13.4451 2.01252 13.716C1.77881 14.0257 1.54509 14.3225 1.27243 14.5934C1.16856 14.6968 1.0517 14.8 0.934847 14.8903C0.792023 15.0063 0.610247 15.0709 0.506375 15.2129C0.428471 15.3031 0.402504 15.4321 0.402504 15.5484C0.415487 15.7936 0.610247 16 0.869927 16H11.0104C11.6986 16 12.3219 15.4452 12.3219 14.7613V11.5611C12.3219 11.5611 12.2051 11.5741 12.153 11.5741C11.3871 11.5741 10.2573 11.2645 9.19266 10.7612C9.14085 10.7354 9.07593 10.7224 9.02387 10.7224C8.80314 10.6967 8.56943 10.6967 8.3487 10.6967C8.0241 10.6967 7.6995 10.7224 7.3749 10.7612C7.12834 10.8 6.88151 10.8387 6.63482 10.8903C5.31045 11.1483 3.9731 11.729 2.88257 12.5161C2.81752 12.5546 2.77857 12.6062 2.73962 12.6579Z" fill="#613A2D"/>
</svg>
